<?xml version="1.0" encoding="utf-8"?>
<!-- Generator: Adobe Illustrator 24.1.1, SVG Export Plug-In . SVG Version: 6.00 Build 0)  -->
<svg version="1.1" id="Layer_1" xmlns="http://www.w3.org/2000/svg" xmlns:xlink="http://www.w3.org/1999/xlink" x="0px" y="0px"
	 viewBox="0 0 800 800" style="enable-background:new 0 0 800 800;" xml:space="preserve">
<style type="text/css">
	.st0{fill:#4D4D4D;stroke:#000000;stroke-width:10;stroke-miterlimit:10;}
	.st1{fill:#FFFFFF;stroke:#000000;stroke-width:10;stroke-miterlimit:10;}
	.st2{fill:#F15A24;stroke:#000000;stroke-width:10;stroke-linecap:round;stroke-miterlimit:10;}
	.st3{fill:none;stroke:#000000;stroke-width:10;stroke-linecap:round;stroke-miterlimit:10;}
	.st4{fill:#F15A24;stroke:#000000;stroke-width:10;stroke-miterlimit:10;}
	.st5{fill:none;stroke:#000000;stroke-width:10;stroke-miterlimit:10;}
</style>
<g>
	<path class="st0" d="M350.3,336.44c0.7-6.13,1.07-12.35,1.07-18.66c0-5.95-0.33-11.83-0.95-17.62l-35.19-12.51
		c-3.2-13.26-8.43-25.73-15.35-37.05l16.15-33.98c-7.5-9.42-16.03-17.98-25.42-25.53l-34.06,16.19
		c-11.32-6.92-23.79-12.15-37.05-15.35l-12.68-35.65c-5.9-0.65-11.89-0.99-17.96-0.99s-12.06,0.34-17.96,0.99l-12.68,35.65
		c-13.26,3.2-25.73,8.43-37.05,15.35l-34.06-16.19c-9.38,7.55-17.91,16.11-25.42,25.53l16.15,33.98
		c-6.92,11.32-12.15,23.79-15.35,37.05l-35.19,12.51c-0.62,5.79-0.95,11.67-0.95,17.62c0,6.31,0.37,12.54,1.07,18.66l35.07,12.47
		c3.2,13.26,8.43,25.73,15.35,37.05l-15.86,33.36c7.64,9.53,16.33,18.19,25.9,25.79l33.28-15.82c11.32,6.92,23.79,12.15,37.05,15.35
		l12.31,34.61c6.02,0.68,12.13,1.03,18.33,1.03s12.31-0.36,18.33-1.03l12.31-34.61c13.26-3.2,25.73-8.43,37.05-15.35l33.28,15.82
		c9.57-7.6,18.26-16.25,25.9-25.79l-15.86-33.36c6.92-11.32,12.15-23.79,15.35-37.05L350.3,336.44z"/>
	<path class="st0" d="M525.65,495c-1.21-5.07-2.71-10.13-4.54-15.15c-1.72-4.74-3.68-9.31-5.85-13.74l-31.6,0.21
		c-6.38-9.62-14.14-18.03-22.91-25.04l3.03-31.69c-8.69-5.32-17.95-9.67-27.59-12.96l-22.41,22.71c-11.01-2.23-22.43-2.79-33.9-1.51
		l-20.38-24.69c-4.88,1.19-9.74,2.64-14.57,4.4s-9.49,3.76-13.99,5.97l0.21,32.01c-9.62,6.38-18.03,14.14-25.04,22.91l-31.77-3.04
		c-5.28,8.71-9.59,17.99-12.84,27.65l22.66,22.36c-2.23,11.01-2.79,22.43-1.51,33.9l-24.37,20.11c1.18,4.78,2.61,9.55,4.33,14.29
		c1.82,5.02,3.92,9.86,6.24,14.53l31.49-0.21c6.38,9.62,14.14,18.03,22.91,25.04l-2.98,31.11c8.83,5.38,18.24,9.75,28.05,13.03
		l21.9-22.19c11.01,2.23,22.43,2.79,33.9,1.51l19.78,23.97c4.98-1.2,9.95-2.68,14.87-4.47c4.93-1.79,9.69-3.84,14.28-6.12
		l-0.21-31.08c9.62-6.38,18.03-14.14,25.04-22.91l31.04,2.97c5.42-8.81,9.83-18.2,13.15-27.99l-22.24-21.95
		c2.23-11.01,2.79-22.43,1.51-33.9L525.65,495z"/>
	<circle cx="188.37" cy="318.28" r="37.5"/>
	<path class="st1" d="M402.7,539.96L402.7,539.96c-9.95,9.57-25.78,9.27-35.35-0.68L173.51,337.85c-9.57-9.95-9.27-25.78,0.68-35.35
		l0,0c9.95-9.57,25.78-9.27,35.35,0.68l193.84,201.44C412.95,514.56,412.65,530.39,402.7,539.96z"/>
	<circle cx="392.37" cy="527.28" r="37.5"/>
	<path class="st1" d="M376.12,542.03L376.12,542.03c-9.76-9.76-9.76-25.59,0-35.36L491,392l35,35L411.48,542.03
		C401.71,551.79,385.88,551.79,376.12,542.03z"/>
	<g>
		<path class="st2" d="M575.87,259.78c9.2-4.05,16.37-12.43,21.76-21.41c3.82-6.36,6.74-13.02,8.85-18.65
			c4.8-12.76,4.63-26.97-0.99-39.39c-0.27-0.59-2.65-5.11-3.75-6.72c-7.49-10.94-21.1-19.02-45.87-12.83c-56,14-48,125-48,125
			l119,119l118.52-84.91c34.48-23.09,47.48-71.09,28.48-97.09c-19.66-26.91-51.81-54.92-66.81-67.36
			c-10.92-9.06-24.32-14.78-38.47-15.78c-18.8-1.33-44.03,7.03-63.71,39.14"/>
		<path class="st3" d="M675.87,312.78c-73-5-78-74-78-74"/>
		<path class="st4" d="M568.06,468.97L445.68,346.59c-4.87-4.87-4.87-12.76,0-17.63l43.71-43.71c4.87-4.87,12.76-4.87,17.63,0
			l122.37,122.37c4.87,4.87,4.87,12.76,0,17.63l-43.71,43.71C580.82,473.83,572.92,473.83,568.06,468.97z"/>
	</g>
</g>
</svg>
