<svg id="Layer_1" data-name="Layer 1" xmlns="http://www.w3.org/2000/svg" viewBox="0 0 2622 800"><defs><style>.cls-1{fill:#4d4d4d;}.cls-1,.cls-2,.cls-3,.cls-4,.cls-5,.cls-6{stroke:#000;stroke-miterlimit:10;stroke-width:15px;}.cls-3{fill:#fff;}.cls-4,.cls-6{fill:#f15a24;}.cls-4,.cls-5{stroke-linecap:round;}.cls-5{fill:none;}.cls-7{font-size:500px;font-family:Antihero;}</style></defs><path class="cls-1" d="M360.3,306.44a163.55,163.55,0,0,0,.12-36.28l-35.19-12.51a129.06,129.06,0,0,0-15.35-37l16.15-34a163.23,163.23,0,0,0-25.42-25.53l-34.06,16.19a129.06,129.06,0,0,0-37.05-15.35l-12.67-35.65a163.4,163.4,0,0,0-35.92,0l-12.67,35.65a129.06,129.06,0,0,0-37.05,15.35L97.13,161.08a163.23,163.23,0,0,0-25.42,25.53l16.15,34a129.06,129.06,0,0,0-15.35,37L37.32,270.16a163.55,163.55,0,0,0,.12,36.28l35.07,12.47a129.06,129.06,0,0,0,15.35,37L72,389.32a163.66,163.66,0,0,0,25.9,25.79l33.28-15.82a129.06,129.06,0,0,0,37.05,15.35l12.3,34.61a163.62,163.62,0,0,0,36.66,0l12.3-34.61a129.06,129.06,0,0,0,37.05-15.35l33.28,15.82a163.66,163.66,0,0,0,25.9-25.79L309.88,356a129.06,129.06,0,0,0,15.35-37Z"/><path class="cls-1" d="M535.65,465a137.19,137.19,0,0,0-4.54-15.15,140.25,140.25,0,0,0-5.84-13.74l-31.6.21a109.32,109.32,0,0,0-22.91-25l3-31.7a138.61,138.61,0,0,0-27.59-13l-22.41,22.71a109.48,109.48,0,0,0-33.9-1.51l-20.38-24.69A138.32,138.32,0,0,0,341,373.51l.21,32a109.39,109.39,0,0,0-25,22.92l-31.76-3A137.45,137.45,0,0,0,271.52,453l22.66,22.37a109.47,109.47,0,0,0-1.51,33.9L268.3,529.42a138,138,0,0,0,10.57,28.82l31.49-.21a109.58,109.58,0,0,0,22.91,25l-3,31.11a138.74,138.74,0,0,0,28,13l21.9-22.2a108.92,108.92,0,0,0,33.91,1.51l19.78,24a138.38,138.38,0,0,0,29.15-10.58l-.21-31.08a109.58,109.58,0,0,0,25-22.91l31,3a138.57,138.57,0,0,0,13.16-28L509.85,519a109.48,109.48,0,0,0,1.51-33.9Z"/><circle class="cls-2" cx="198.37" cy="288.28" r="37.5"/><rect class="cls-3" x="273.45" y="226.45" width="50" height="329.55" rx="25" transform="translate(-187.88 316.26) rotate(-43.9)"/><circle class="cls-2" cx="402.37" cy="497.28" r="37.5"/><path class="cls-3" d="M386.12,512h0a25,25,0,0,1,0-35.36L501,362l35,35L421.48,512A25,25,0,0,1,386.12,512Z"/><path class="cls-4" d="M585.87,229.78c9.2-4.05,16.37-12.43,21.76-21.41a117,117,0,0,0,8.85-18.65,51.6,51.6,0,0,0-1-39.39c-.27-.58-2.66-5.11-3.75-6.72-7.49-10.94-21.11-19-45.87-12.83-56,14-48,125-48,125l119,119,118.52-84.91c34.48-23.09,47.48-71.09,28.48-97.09-19.66-26.91-51.81-54.92-66.81-67.36a68,68,0,0,0-38.48-15.78c-18.79-1.33-44,7-63.71,39.14"/><path class="cls-5" d="M685.87,282.78c-73-5-78-74-78-74"/><rect class="cls-6" x="448.54" y="303.74" width="197.99" height="86.74" rx="12.46" transform="translate(405.82 -285.5) rotate(45)"/><text class="cls-7" transform="translate(889.31 553.04)">R.I.P.T.</text><path d="M1317.9,647.1c-.05-.65,1.34-1.1,4.19-1.34s5.71-.43,8.56-.56l8.58-.4a20.14,20.14,0,0,0,7-1.42q-17.17.47-14.52-2a41.22,41.22,0,0,0,8.49-1.38q2.76-.88-8.63-.25c-1.82,1.25-5.54,2.28-11.22,3.09s-11.33,1.67-17,2.59c-7.75-.88-11.61-1.43-11.62-1.64s1.4-.34,4.27-.36,6.67-.19,11.44-.48,8-1,9.88-2a127.18,127.18,0,0,0,19.87-2.51q8.46-1.87,34.26-2.09-5.46,3.75,14.53,2.05t31.48-1c-9.4,2.33-14,4.36-13.83,6.1q11.32-1.29,12.65-3c.85-1.17,6-2.15,15.54-3q19.84-2.35,31.34-2.66c7.61-.21,14.33-.19,20.1.09a128.14,128.14,0,0,1,14.47,1.4,112.33,112.33,0,0,0,17.3,1q11.42-.32,21.44-1t21.44-1q8.61-.07,38.69-.66t47.21-1.71c1.87-.16,7.16-.17,15.78,0s13.89.35,15.84.63a24.87,24.87,0,0,0,7.15-.28q4.24-.69,4.36.61,3,2,12.91.06t30-2c3.83.11,4.79.41,3,.89s1.91.33,11.44-.47q14.25-.9,25.78-.55t31.51-.71q2.92,1.07-15.48,3.61T1773.45,638q0-.32,17-2.59c11.36-1.51,15.17-1.45,11.5.18,9.46-1,12.78-1.64,9.89-1.83a68,68,0,0,0-10,.2,58.38,58.38,0,0,1,15.53-3c4.74-.19,9.54-.16,14.36.09s10.53.36,17.25.34a195.94,195.94,0,0,0,24.23-1.89c.08.86,2,1.31,5.86,1.31s7.62.06,11.49.17,7.2.32,10.1.62,3.41,1.08,1.63,2.32q14.05-3.15,42.6-5.25c3.91,1.19,11.62,1.64,23.07,1.32s23.35-.72,35.77-1.23,24.33-.81,35.8-.91,18.22.64,20.28,2.22a294.72,294.72,0,0,1,32.71-3.43c8.59-.29,16.21-.34,22.95-.14s13.4.44,20.15.75a193.73,193.73,0,0,0,24.33-.75l11.4-1q14.31-.24,25.88.59t17.28.67c5.71-.27,13.28-1,22.78-2.1s16.09-1.64,20-1.53c3.8-.11,4.33.4,1.56,1.51s-3.22,1.69-1.29,1.75q5.73.17,21.37-1.82t21.37-1.81c7.61-.21,12.93.16,15.88,1.11s7.3,1.41,13,1.36c3.81-.11,9-.55,15.67-1.33a118.62,118.62,0,0,1,12.83-1.09q2.8-.24.07.82t.07.81c3.78-.32,9-.82,15.65-1.49s10.91-1,12.84-.93l0,.65.09,1c3.8-.11,9-.6,15.66-1.49s10.88-1.2,12.83-.93l.08,1,.06.65a156.72,156.72,0,0,0,15.66-1.49q9.9-1.33,12.83-.93c1.89.06,1.92.33.07.82s-1.86.76.07.81a156.72,156.72,0,0,0,15.66-1.49c6.61-.89,10.88-1.2,12.84-.93,0,.22-.45.54-1.36.94s-.44.64,1.49.69a156.46,156.46,0,0,0,15.66-1.49q9.91-1.33,12.84-.92,2.84.08,23,.34a340.52,340.52,0,0,0,45.67-2.89c.26,3,5.19,5.08,14.87,6.12s15.5,2.46,17.58,4.26c0,.21.51.72,1.56,1.5s.57,1.38-1.28,1.75l-8.55.73-5.7.48c0,.44,2.43.62,7.22.54s7.16-.23,7.14-.44a27.56,27.56,0,0,1-8.4,2.52c-3.8.65-5.62,1.4-5.54,2.27a127.13,127.13,0,0,1-10.86,7.33c-3.68,2.16-5.32,5-5,8.47q-31.26,4.29-50.84,9.73t-45.07,9.9q-2.82.88-12.83,1.09a91.24,91.24,0,0,0-15.67,1.33,113.53,113.53,0,0,1-17,2.75q-8.55.72-25.62,2.5c-1.92.17-6.68.51-14.26,1s-12.38,1-14.24,1.37a59.87,59.87,0,0,1-12.76,1.74q-7.17.28-30,1.89c-5.71.27-12.39.83-19.94,1.69s-15.21,1.51-22.8,1.94q-2.86.24-.05-.65t-.09-1a270.33,270.33,0,0,0-27.06,2.3c-12.35,1.48-21.34,2.24-27.07,2.3l-5.76-.17c-5.75-.17-9.61-.17-11.48,0-3.83.32-8.54.83-14.22,1.53a97.53,97.53,0,0,1-14.27.89c-3.85.1-6.26-.24-7.26-1s-3.45-1-7.24-.7q-11.47.31-27.08,2.14t-29.91,2.7c-1.93-.06-2.9-.36-2.94-.9s-3.9-.49-11.47.15q-14.29,1.21-17.21.15a29.8,29.8,0,0,0-8.71-1.23q-22.92,1-42.81,2.81T1994,701c-3.85.1-6.25-.24-7.26-1s-3.45-1-7.24-.7a192,192,0,0,0-21.38,1.66c-8.52,1.05-16.62,1.79-24.21,2.21l-26-1.4c-3.84.1-8.6,0-14.37-.26s-10.57-.37-14.37-.26a172.49,172.49,0,0,0-21.37,1.82,176.2,176.2,0,0,1-21.37,1.81q-5.8-.17-13-.54c-4.82-.25-10.08-.35-15.81-.3l-71.68.83c-3.85.11-10.49.51-20,1.21s-17.12,1.07-22.86,1.12c5.63-1.36,8.86-2.29,9.81-2.81s.86-.89-.1-1.14-4.31,0-10,.69c-1.91.16-2.82.57-2.76,1.22s-2.78,1.11-8.5,1.37a20.31,20.31,0,0,1-5.76-.33c-2-.38-5.77-.33-11.47.16q-14.29,1.21-17.22,0c-2-.81-5.84-1.2-11.58-1.15-3.83.33-8.54.83-14.22,1.54a98.75,98.75,0,0,1-14.27.88,83.74,83.74,0,0,1-14.43-.91q-5.87-1-28.56,1.6-14.43-.42-8.76-1.71a25.51,25.51,0,0,0,8.34-3.17q-17.12,1.11-25.57,3c-5.64,1.24-15.14,2.32-28.43,3.23q-8.68-.92-21.6-1t-25.83.06c-8.6.08-16.76.11-24.38.1s-12.52-.58-14.5-1.72q-40,2.73-62.94,2.39T1323,707.4q-74.26,4.65-121.65,3.76t-107.55.92a83.27,83.27,0,0,1,15.47-3.77q9.87-1.66,12.61-3.54a186.1,186.1,0,0,1-24.09,3.53q-15.69,1.49-18.37,3.36c-13.28,1.56-20,1.58-20.09.07s-3.07-2.37-8.82-2.54q-14.21,2.19-25.56,3.16c-5.7.48-11,.71-15.73.68s-5.38-1.08-1.7-3.14a305.28,305.28,0,0,1-45.7,2.56,352.06,352.06,0,0,0-40.09,1.11q-14.28,1.22-11.49-.17c1.8-.93.81-1.55-3-1.88q-2.93-.42-12.82,1.09a93.37,93.37,0,0,1-15.67,1.33c0-.22-2-.6-5.84-1.15l-5.81-.82c-7.65.21-15.71.84-24.24,1.89s-15.63,1.71-21.35,2c-1.93-.05-1.5-.69,1.27-1.91s2.24-1.67-1.55-1.35q-8.65-.57-30,1.73c-14.22,1.53-22.35,1.84-24.31.91,3.73-1,7-1.91,9.8-2.8s4.15-1.88,4.06-3q-11.43,1-12.73,2.23c-.91.84-1.31,1.48-1.27,1.91q-34.17,3.23-48.58,2.49t-37.29.21c3.64-2.07,8.8-3,15.55-2.8s14.79,0,24.34-.59q-6.07-3.42-25.91-.92t-45.46,5.34q19.68-4.3,8.34-3.17a178.53,178.53,0,0,1-22.89.79c-5.76-.17-8.21-.51-7.27-1s.88-.79-.06-.82a67.65,67.65,0,0,0-7.13.61q-5.73.64-25.55,3.32c5.57-2,6.42-3.18,2.58-3.51a133.42,133.42,0,0,0-14.37-.25c-5.73.15-11,.22-15.77.19s-6.3-.78-4.5-2.25q-31.27,4-44.18,3.59t-38.56,2.12c-.08-.87,3.23-1.58,9.86-2.15s12.81-1.2,18.49-1.9c1.83-1.25-1.55-1.4-10.08-.45a150.84,150.84,0,0,1-18.55,1.24c-1.91-.28-2-.87-.15-1.79s1.81-1.41-.12-1.47l-14.25,1.21c-7.68-.66-10.22-2-7.53-4.12s-4.52-2.62-21.66-1.61q-.07-1,9.88-2c6.67-.68,12.8-1.37,18.48-2.06-5.87-1.48-9.34-3.26-10.5-5.35s11.6-4.38,38.16-6.85c1.82-1.25-3-1.39-14.38-.42q2.76-1.55,26.82-5.23t30-1.24c13.17-2.21,19.77-3.7,19.71-4.46s12.2-2.52,36.86-5.26l8.46-1.71,5.65-1.13q34.14-3.55,78.37-6.49T773.54,658q45.65-2.71,85.69-4.81t71.4-4.09c2,1.14.19,2.17-5.48,3.09s-8.44,1.92-8.35,3q22.83-1.29,25.55-3.32c1.77-1.36,3.57-2.77,5.38-4.23q14.19-1.54,8.71,1.23c-3.7,1.84-2.63,2.74,3.1,2.69A147.81,147.81,0,0,0,988,648.36a146.92,146.92,0,0,1,28.42-3.24q23,.68,48.76-.36t51.52-1.59q25.75-.87,53-1.37t61.41-3.41a14.81,14.81,0,0,1,4.51,2.41c1,.89,4.42,1.31,10.16,1.27s9-.5,9.93-1.34a6.69,6.69,0,0,1,4.17-1.5c9.51-.59,12.89-.39,10.1.62s-2.3,1.45,1.55,1.34a215.93,215.93,0,0,0,22.81-1.77q14.19-1.7,22.78-2.1c1.91.28,1.51.86-1.29,1.75s-3.23,1.48-1.28,1.76q-17.24-.2-25.72,1.36c-5.65,1-8.43,2-8.35,3s3.47,1.73,10.24,2.25A199.23,199.23,0,0,0,1317.9,647.1ZM663.48,680a114.06,114.06,0,0,0,20-1.53c5.65-1,8.89-2,9.81-2.81s-.13-1.52-3-2-7.21-.43-12.89.28q.16,2-14.11,2.84ZM555.37,691.15c-3.74,1.41-1.79,1.68,5.81.82,3.65-1.84,7-2.56,9.86-2.15a64.82,64.82,0,0,1,8.77,1.88,48.1,48.1,0,0,0,11.61,1.48,36,36,0,0,0,15.49-3.45c-7.63.43-12.43.4-14.36-.09s-3.94-.93-5.85-1.31a57.69,57.69,0,0,0-8.67-.74,129.74,129.74,0,0,0-17.13,1.12Zm-19.56,6.26c9.5-.59,12.88-.44,10.08.46s-6.07,1.82-9.8,2.8l20-.55q8.6-.24-8.64-.42,11.29-1.62,12.68-2.72c.88-.73-.11-1.3-3-1.71a59,59,0,0,0-11.49-.17C540.89,695.39,537.59,696.16,535.81,697.41Zm510.73-35.15q-5.85-.82-.19-2.28c3.73-1,7.46-1.9,11.25-2.76s5.61-1.52,5.57-2-5.76-.28-17.18.47q-2.82.9-14,4.63T1046.54,662.26ZM1702.21,644q51.38-3.37,56.74-7.77Q1713.34,640.12,1702.21,644Z"/></svg>