<svg id="Layer_1" data-name="Layer 1" xmlns="http://www.w3.org/2000/svg" viewBox="0 0 1744 561"><path d="M247.78,143.38c.37,1.88-.56,2.81-2.81,2.81,1.13,2.24,2.16,2.9,3.1,2a5.32,5.32,0,0,0,1.4-3.93,7.8,7.8,0,0,0-1.69-4.78c-1.12-1.49-3-2.05-5.62-1.68q0-1.12,2.25-2.25c1.5-.75,2.62-.93,3.37-.56s1.31,1.4,1.69,3.09.75,2.53,1.12,2.53,1-.57,2-1.69,1.87-2.15,2.81-3.09,1.78-1.21,2.53-.84,1.12,2.24,1.12,5.62c1.5.37,2.34-.09,2.53-1.41a27.34,27.34,0,0,0,.28-3.93,6.44,6.44,0,0,1,.85-3.37q.84-1.41,4.21.28c1.13,1.5,1,2.24-.28,2.24s-2,.2-2,.57c-.75,1.5-.75,2.72,0,3.65s1.41,1.78,2,2.53.56,1.32,0,1.68-2.16.57-4.78.57q1.13,3.93,2.81,3.93a5.33,5.33,0,0,0,3.38-1.4,12.49,12.49,0,0,0,2.81-3.38c.74-1.31,1.49-2,2.25-2,1.87-.75,2.61-.57,2.24.56s-.19,1.88.56,2.25,2.9-.47,6.47-2.53a27.47,27.47,0,0,0,7.59-5.9q-1.14-2.8-2.25-1.13c-.76,1.13-2.07,1.5-3.94,1.13a3.08,3.08,0,0,1-2.81,2.53c-1.5.19-2.24,1.22-2.24,3.09q-2.82-2.81-11.81-2.81c0-2.62,1.21-3.94,3.66-3.94s4.21-.56,5.33-1.68v-2.81q1.13,0,2.25,1.68a2.84,2.84,0,0,0,3.37,1.13,28.5,28.5,0,0,0,6.75-2.81q5.61-2.81,7.31-2.81c1.12,2.24,2.05,2.24,2.81,0q3.36,0,2,1.68T297,132.14a10.87,10.87,0,0,0-2.53,4.49q-.57,2.25,3.94,3.94,2.81-1.12,1.12-2c-1.12-.56-1.5-1.77-1.12-3.65a6.2,6.2,0,0,1,1.4-2.53,4.36,4.36,0,0,0,.84-3.09c6-.37,9,1.5,9,5.62,1.87-.37,2.61-1.87,2.24-4.5s.57-3.93,2.81-3.93c.75-1.87,1.41-2.53,2-2a2.7,2.7,0,0,1,.84,2c-1.12,0-1.68.65-1.68,2a6.47,6.47,0,0,1-1.13,3.66,29.6,29.6,0,0,1,4.22.28,11,11,0,0,0,4.21-.28,9.2,9.2,0,0,0,4.22-1.41c1.69-.93,2.33-1.4,2-1.4a7.09,7.09,0,0,1,4.77,1.68q2,1.69,3.66,3.09a9.72,9.72,0,0,0,3.65,2c1.31.38,2.9,0,4.78-1.12a2.6,2.6,0,0,0-2-2.81,14.53,14.53,0,0,0-3.93-.57,6.44,6.44,0,0,1-3.38-.84c-.94-.56-.84-2,.28-4.21H326.47c-3,1.5-4.78,2.16-5.34,2s.08-1.77,2-4.77H340c-.37,3,0,4.49,1.13,4.49a13.19,13.19,0,0,0,3.65-.56,10.54,10.54,0,0,1,4.22-.28q2.24.28,2.24,4.78c1.88-.37,2.81-1.41,2.81-3.1s.94-2.52,2.81-2.52c1.5,1.5,3.94,2,7.31,1.4s5.62-.09,6.75,1.41c.36.37.28,1.31-.29,2.81s-.47,2.44.29,2.81,1.87-.19,3.37-1.69a4.36,4.36,0,0,1,5.05-1.12c.75.37.94,1.59.57,3.65s.37,2.72,2.25,2c1.87-.37,2.52-.93,2-1.69a2.42,2.42,0,0,0-2-1.12c.74-1.87,1.4-2.25,2-1.13s1.78,1.5,3.66,1.13a74.83,74.83,0,0,0,8.71,5.34,28.71,28.71,0,0,0,11,3.09,14.25,14.25,0,0,1,2.81,8.43,10.13,10.13,0,0,1,4.49.84l3.94,2a37.76,37.76,0,0,1,8.15,4.21,97.79,97.79,0,0,1,8.71,7c.74.75.93,1.4.56,2s.37.85,2.25.85c.74,0,1.77.66,3.09,2a5.49,5.49,0,0,1,2,3.66c.37,1.88,1.22,2.53,2.53,2a2.27,2.27,0,0,1,3.1.85,12.69,12.69,0,0,1,1.68,4.21,12.14,12.14,0,0,0,1.69,4.22,69,69,0,0,0,5.62,8.71,51.11,51.11,0,0,1,5.06,8.15c.74,1.88.93,3.28.56,4.21a20,20,0,0,1-1.41,2.81l-1.68,2.81a4.68,4.68,0,0,0-.28,3.66c1.49,0,2.24-.65,2.24-2a11.31,11.31,0,0,1,.57-3.65c.36.75,1.49,1.78,3.37,3.09s2.81,2.16,2.81,2.53c0,1.5-.56,2.44-1.69,2.81s-1.68,1.5-1.68,3.37c.74,4.13,1.21,6.46,1.4,7s-.28,2.73-1.4,6.47a55.44,55.44,0,0,0-.85,5.9,10.31,10.31,0,0,1-2,5.34c-.38.75-1.32,1.22-2.81,1.4s-2.25.66-2.25,1.41a2.2,2.2,0,0,0-.28,2.81,3.12,3.12,0,0,1,.28,2.81c-.38.37-2,1-4.78,2a22.6,22.6,0,0,0-7,3.66,13.23,13.23,0,0,0-2.81,4.49,12.23,12.23,0,0,1-2.24,3.94,4.88,4.88,0,0,1-4.22,1.4,4.89,4.89,0,0,0-4.21,1.41c-.76.38-1.32,1.31-1.69,2.81s-.94,2.44-1.69,2.81a5.93,5.93,0,0,1-5.05,0c-1.88-.75-2.81.19-2.81,2.81q-.57,2.82-7.87,4.21a46.22,46.22,0,0,0-11.8,3.66,10.86,10.86,0,0,0-3.1,3.37,7.58,7.58,0,0,1-2.52,2.81,14.48,14.48,0,0,1-7.87,1.12,16.74,16.74,0,0,0-9,1.69c-.75.38-1,.84-.84,1.4s-.47,1-2,1.41a4.53,4.53,0,0,1-1.41-.28,1.28,1.28,0,0,0-1.41.28c-.75.75-1.68,1.78-2.8,3.09s-2.07,2-2.82,2a2.92,2.92,0,0,1-3.09.56,13,13,0,0,0-2.53-.56c-.75,1.5-1.4,2.24-2,2.24a13.76,13.76,0,0,0-3.66,1.13c-1.87.38-4.59,1-8.14,2a29,29,0,0,0-8.72,3.65,15.28,15.28,0,0,1-3.65,1.4c-.94.2-2.53.66-4.78,1.41-1.12.38-2.34.75-3.65,1.12s-2.91.94-4.78,1.69c-1.12.38-2.34.75-3.65,1.12s-2.91.76-4.78,1.13a22.07,22.07,0,0,1-7.86,2.81c-3.75,1.12-8,2.44-12.65,3.93s-9.37,3.19-14,5.06-9.09,3.75-13.21,5.62-7.68,3.56-10.68,5.06c-1.12,2.25-.65,4.21,1.41,5.9a13.68,13.68,0,0,1,4.21,5.34,8,8,0,0,1,0,5.9,8,8,0,0,0,0,5.9q1.13,3.38,2.53,7.87c.93,3,1.78,6,2.53,9a19.12,19.12,0,0,0,3.66,4.78,8.1,8.1,0,0,1,2.53,5.9q0,5.63,2.8,5.62,2.81.57,1.41,2.53c-.94,1.32-.47,3.28,1.41,5.9l2.8,2.81a11.7,11.7,0,0,1,2.25,2.81,12.85,12.85,0,0,1,1.69,6.74,23,23,0,0,0,1.12,7.31,1.83,1.83,0,0,0,2.25.56c.75-.37,1.13.38,1.13,2.25,0,2.25.64,3.75,2,4.5s2.53,3,3.66,6.74c.36.75,1,2.34,2,4.78a41,41,0,0,0,3.09,6.46,15.39,15.39,0,0,0,4.5,3.93,13.1,13.1,0,0,1,4.5,4.5c.74,1.12,1.12,3,1.12,5.62s-.38,3.37-1.12,2.25a4.92,4.92,0,0,0,.56,2.25c.74,1.5,1.49,1.88,2.25,1.12v-3.37a22.15,22.15,0,0,1,11.24,9.27,70,70,0,0,1,5.62,11q4.49-1.12,6.18.56a22.64,22.64,0,0,1,3.09,3.94,14.91,14.91,0,0,0,3.09,3.65c1.12.94,3.37.84,6.74-.28a20.53,20.53,0,0,0,1.69,6.18q1.13,2.24,2,4.22a9.86,9.86,0,0,1,.84,3.93,13,13,0,0,1-1.69,5.34,54.11,54.11,0,0,1-23.6,10.4q-13.48,2.52-24.17.84c.37.37.19.09-.56-.84a3,3,0,0,0-2.25-1.41c-.37-.38-1.12-.47-2.24-.28a18.73,18.73,0,0,1-2.81.28c-.38-.38.08-1.5,1.4-3.37s1.77-2.81,1.41-2.81q-1.14-.57-4.78,1.4a10.92,10.92,0,0,1-7,1.41v-5.62c-1.88-.38-2.62-.1-2.24.84s.18,1.59-.57,2q-6.18-1.69-9.83-3.09a24.35,24.35,0,0,1-6.18-3.37q-2.53-2-.85-4.22a12.89,12.89,0,0,1-9.83.56,39.86,39.86,0,0,1-9.28-4.77,101,101,0,0,1-8.71-6.75,52.55,52.55,0,0,0-8.15-5.9,12.77,12.77,0,0,0,0-5.34c-.37-1.31-.75-2.43-1.12-3.37a6.72,6.72,0,0,1-.56-2.53c0-.75.56-1.69,1.68-2.81-2.24.76-3.65,1.5-4.21,2.25a2.44,2.44,0,0,0-.28,2.53,8.33,8.33,0,0,1,.56,3.09,4.84,4.84,0,0,1-1.69,3.37c-2.24-1.12-3.37-2.43-3.37-3.93a13.64,13.64,0,0,1,1.13-5.06c.74-1.87,1.4-3.74,2-5.62a11.53,11.53,0,0,0,.28-5.62,52.44,52.44,0,0,0-5.9,7.3q-3.09,4.51-8.15-1.12c1.13-3,2.44-3.84,3.94-2.53a10.74,10.74,0,0,0,4.49,2.53q0-5.06-1.4-6.46a4.2,4.2,0,0,0-3.65-1.13c-1.51.2-3.1.38-4.78.57a4.42,4.42,0,0,1-4.22-2q-1.12-4.5.28-6.18a16.92,16.92,0,0,0,2.53-4.5,1.83,1.83,0,0,0-2.24-.56,5.51,5.51,0,0,0-2,1.68,6.36,6.36,0,0,0-1.13,2.53,2.14,2.14,0,0,0,.28,2q-1.12-.56-3.09-3.65c-1.31-2.06-1.22-3.66.29-4.78,1.12-1.12,1.49-1.69,1.12-1.69h-2a10.58,10.58,0,0,1-8.15-4.49q-1.12-8.43,9-7.87c-.76-1.87-2-2.71-3.66-2.53s-2.53,1-2.53,2.53a29.26,29.26,0,0,1-5.34-2.81,29.26,29.26,0,0,0-5.34-2.81q-1.12-5.61-1.68-8.43t4.49-5.62c-.75-1.49-1.4-2.25-2-2.25a3.49,3.49,0,0,0-2,.84,3.7,3.7,0,0,1-2.25.85c-.75,0-1.68-.75-2.81-2.25-1.88-1.49-2.53-2.25-2-2.25a15.84,15.84,0,0,1,3.09.56,37,37,0,0,0,4.49.85,3.11,3.11,0,0,0,3.37-2,8.11,8.11,0,0,0-3.65-4.22,40.69,40.69,0,0,1-4.78-3.09,13.13,13.13,0,0,1-3.65-4.21c-.94-1.69-.84-4.4.28-8.15H164a20.24,20.24,0,0,1-1.4-5.34,13.33,13.33,0,0,0-2-5.34,4.6,4.6,0,0,0-2.53-3.65,4.24,4.24,0,0,1-2.53-2.53,31.84,31.84,0,0,1-1.68-8.15q-.57-5.34-6.75-5.34c-3-.37-4.31.56-3.93,2.81s.75,3,1.12,2.25a10.16,10.16,0,0,1-4.21,4.77,14.23,14.23,0,0,0-4.22,3.66,9,9,0,0,0-1.4,5.62,9,9,0,0,1-1.41,5.62,26.62,26.62,0,0,0-1.4,4.49c-.56,2.25-1,3.57-1.41,3.94-2.24,1.88-2.81,3.65-1.68,5.34s.74,4.59-1.13,8.71c-.37.75-1.31,1.22-2.81,1.4s-2.44.66-2.81,1.41a2.53,2.53,0,0,0-.56,2.81,9.35,9.35,0,0,1,.56,2.81,12.38,12.38,0,0,0-1.68,3.93l-1.13,4.5a7.43,7.43,0,0,1-1.68-.28c-.76-.19-1.13-.09-1.13.28a3.75,3.75,0,0,0,.28,3.09c.57,1.32.47,2.16-.28,2.53h-2.81c-.37.38-.28,1.32.28,2.81s.47,2.44-.28,2.81q-2.82,2.82-1.68,4.78t-1.13,9.27c0,.38-.94.75-2.81,1.12S105,456.23,105,457a26.71,26.71,0,0,0-1.12,10.68,28.12,28.12,0,0,1-1.69,11.8,1.34,1.34,0,0,1-1.68.84c-.76-.18-1.13.28-1.13,1.41q0,1.13-.84,7t-2,7H93.79A38,38,0,0,0,92.67,505a69,69,0,0,1-.56,9,15.81,15.81,0,0,1-2.53,7q-2,2.81-7,2.81c-.38,2.62.09,4.5,1.41,5.62s1.77,3,1.4,5.62H79.74l-8.43,8.43a7.49,7.49,0,0,1-3.93-3.09c-.76-1.32-2.25-2.16-4.5-2.53-1.5.37-2.06.93-1.68,1.69a1.79,1.79,0,0,0,1.68,1.12c-.38,1.12-.84,1.69-1.4,1.69a3.08,3.08,0,0,1-1.69-.57,1.4,1.4,0,0,0-1.4-.28c-.38.19-.57.85-.57,2-1.88,0-3.18-.56-3.93-1.69a21.58,21.58,0,0,1-2-3.65,6.78,6.78,0,0,0-2.53-3.09c-1.12-.76-3-.76-5.62,0-1.12-1.12-1-2.44.28-3.93s2-2.07,2-1.69q-1.68-3.37-6.74-5.62A16.5,16.5,0,0,1,32,518.24a19.38,19.38,0,0,1-1.68-5.34c-.38-2.06.18-2.91,1.68-2.53a87,87,0,0,1-10.68-11.8,17.06,17.06,0,0,1-.84-6.75,19.66,19.66,0,0,1,1.69-6.46A22.22,22.22,0,0,1,25,480.58c.94-1.12,1.59-1.49,2-1.12q3.38,3.38,3.38-.56A24.18,24.18,0,0,1,32,470.47a8.26,8.26,0,0,0-2.81,3.93q-1.12,2.82-2.25-.56-7.29,0-5.62,10.68c-2.25-1.13-3.83-3.37-4.77-6.75a49.61,49.61,0,0,1-1.69-11,51,51,0,0,1,.84-11.8,37.25,37.25,0,0,1,2.81-9.27c1.5-1.49,2.25-2.06,2.25-1.69a16,16,0,0,1-.56,2.81c-.37,1.51-.84,3.19-1.41,5.06a9.57,9.57,0,0,0-.28,5.06q4.51,10.11,16.3,5.62c0-1.49-.38-2.43-1.12-2.81a10.4,10.4,0,0,0-2.81-.84A6.33,6.33,0,0,1,28,457.82c-.76-.56-1.13-1.77-1.13-3.65-.37-2.25-1.12-2.71-2.24-1.41A3.57,3.57,0,0,0,24.1,457a5.55,5.55,0,0,1-1.4-5.62c.56-2.25,1.32-4.68,2.25-7.31a86.94,86.94,0,0,0,2.53-8.43,16.87,16.87,0,0,0-.57-9.55q-2.81,1.13-2.53,4.5a26.3,26.3,0,0,1-.28,6.74q-1.68,2.82-2.53-.84a28.73,28.73,0,0,1-.56-8.15,21.9,21.9,0,0,1,2.25-8.43c1.32-2.62,3.28-3.38,5.9-2.25.37,0,.19-.56-.56-1.69a18.49,18.49,0,0,1-2-3.93,19.9,19.9,0,0,1-1.12-4.5,4.53,4.53,0,0,1,1.4-3.93,10.53,10.53,0,0,0,3.66-7.87A90.48,90.48,0,0,1,32,384.48c0-.37.65.19,2,1.69s1.59,2.62.84,3.37q0-.56,1.41-.84a2.63,2.63,0,0,0,2-2,4.74,4.74,0,0,0-.28-3.65,11.53,11.53,0,0,0-1.68-2.25,1.94,1.94,0,0,1-.57-2,9.43,9.43,0,0,1,2.53-3.37q1.13-1.12,1.41-7.87c.18-4.5.65-7.49,1.4-9a15.07,15.07,0,0,0,2.53-4.5q1.4-3.37.28-9.55c1.87-1.87,3.18-2.44,3.94-1.69a7.52,7.52,0,0,0,3.93,1.69q-3.37-5.06-2.81-13.49c2.62-.75,4.3-.56,5.06.56a5.81,5.81,0,0,0,3.93,2.25c.37-2.62-.09-4.22-1.4-4.78a12.2,12.2,0,0,0-4.78-.84,4.55,4.55,0,0,0,2.25-5.06,11.28,11.28,0,0,1,.56-6.18A6.14,6.14,0,0,1,57.26,314a7.67,7.67,0,0,0,2.81-2.53,21.29,21.29,0,0,0,1.41-5.9,34.1,34.1,0,0,1,.84-5.34c.37-1.49.93-2.34,1.69-2.53s2.24.66,4.49,2.53a15.71,15.71,0,0,1-1.68-10.68,41.5,41.5,0,0,1,3.93-10.4q2.81-5.33,5.62-10.39A27.57,27.57,0,0,0,79.74,258a4.51,4.51,0,0,0-3.93-3.09,6.17,6.17,0,0,1-4.5-2.53c-1.12-1.13-1.6-2.9-1.4-5.34s-1.22-3.46-4.22-3.09q0-3.37.28-7c.19-2.43-.84-3.84-3.09-4.21q2.81-5.61,8.43-5.62,0-8.43,8.43-8.43a31,31,0,0,1-2-3.38,4.43,4.43,0,0,0-3.1-2.24c0-.75.65-1.69,2-2.81A10.22,10.22,0,0,1,80.87,208a4.75,4.75,0,0,1,3.65.28c.93.56,1.21,2.16.84,4.78,2.25-.37,3.37-.94,3.37-1.69a4.24,4.24,0,0,0-1.12-2.53c-.75-.93-1.5-2-2.25-3.09a2.81,2.81,0,0,1,0-3.37q2.81-2.25,3.94.28c.74,1.68,1.3,2.53,1.68,2.53,2.25,0,2.81-.65,1.69-2S91,201.64,91,202.39a7.15,7.15,0,0,0,1.69-2.81l1.12-3.37a3.47,3.47,0,0,1,2.81,1.4,32.23,32.23,0,0,0,2.53,2.81,4.58,4.58,0,0,0,3.37,1.41q2,0,5.34-2.81c-.37-2.25-1.12-3.18-2.25-2.81a14.51,14.51,0,0,0-3.37,1.68,3.59,3.59,0,0,1-2.81.84q-1.12-.27,0-5.33a11.88,11.88,0,0,0,4.22-.57q1.4-.56,2.25-.84a5.48,5.48,0,0,1,1.68-.28c.56,0,1.59.56,3.09,1.69.37-.75.28-2-.28-3.66a4.64,4.64,0,0,1,.28-4.21c.37-.75,1.31-.93,2.81-.56a17.46,17.46,0,0,0,2.81.56q1.13-1.12,0-3.09c-.75-1.31-.75-2.34,0-3.1a12.33,12.33,0,0,1,3.09.57c1.31.38,2.16.19,2.53-.57a10.44,10.44,0,0,0,.57-7.58q-1.14-4.22,1.68-9.28,2.23,1.14,4.22,2.25a9.33,9.33,0,0,0,4.77,1.13c0-1.5-.66-2.25-2-2.25a6.4,6.4,0,0,1-3.66-1.13q-1.12-2.8.57-3.37a3.58,3.58,0,0,0,2.24-1.68,39.76,39.76,0,0,0,.85-6.19c.18-2.61.84-4.3,2-5.05.75-.75,1.5-.65,2.25.28a2.3,2.3,0,0,1,.56,2.53,4.94,4.94,0,0,0,2.25-.57c1.13-.74,1.31-1.49.56-2.24-1.88-1.5-2.81-2.72-2.81-3.66a2.53,2.53,0,0,1,1.41-2.24c.93-.57,2.15-1.22,3.65-2a7.38,7.38,0,0,0,3.37-3.37,14.12,14.12,0,0,0,1.41-4.78c.18-1.69.37-3.37.56-5.06a9.33,9.33,0,0,1,1.69-4.49,6.94,6.94,0,0,1,4.77-2.53c-.75-3-.65-5.34.28-7a27.64,27.64,0,0,1,3.1-4.5c1.12-1.3,2.24-2.71,3.37-4.21s1.49-3.56,1.12-6.18q5.06,0,6.18-3.38a15.54,15.54,0,0,0,7.87.29,29.19,29.19,0,0,1,9-.29l3.38,3.38q3.36,3.38,4.49,2.25c1.13-1.13,1.78-1.69,2-1.69s.18.28,0,.84a6.16,6.16,0,0,0-.28,2,1.8,1.8,0,0,0,1.12,1.69c1.13.75,2.53.75,4.22,0a5.33,5.33,0,0,1,4.77,0c.75.75,1.59,1.68,2.53,2.81s1.78,2.06,2.53,2.81a9.72,9.72,0,0,0,4.5,1.4,6.44,6.44,0,0,1,3.93,1.41,3.89,3.89,0,0,1,1.69,4.21,4.28,4.28,0,0,0,1.12,4.22,5.74,5.74,0,0,0,4.22,1.68,7.42,7.42,0,0,1,4.21,1.13q1.13,1.13,0,3.09c-.75,1.31-.75,2.16,0,2.53a9.67,9.67,0,0,0,3.1,1.4c1.68.56,2.52,1,2.52,1.41a7.84,7.84,0,0,1,.85,6.18q-.86,3.38,4.77,2.25c.75,3,.57,5.15-.56,6.46a10.36,10.36,0,0,0-2.25,4.78q3.38,1.13,4.22,0a9.83,9.83,0,0,0,1.4-2.81,15.32,15.32,0,0,1,1.41-3.09C244.13,142.16,245.54,142.25,247.78,143.38ZM32,450.8a11.43,11.43,0,0,0,.84-2.25c.19-.75.85-.93,2-.56a10.2,10.2,0,0,0-.84-4.5c-.56-1.12-2.16-1.31-4.78-.56a17.44,17.44,0,0,1,.28,5.34C29.25,450,30.09,450.8,32,450.8ZM38.15,412q0-6.18-6.18-8.43Q32,409.79,38.15,412ZM68.5,218.69a18.6,18.6,0,0,0-2.81,4.77q-1.68,3.66-2.81,3.66c-1.5.37-2.06-1-1.68-4.22S64,218.32,68.5,218.69Zm89.36,154a17.25,17.25,0,0,1,5.62,10.4q1.13,6.46,6.18,9.27c0-1.13.29-1.78.85-2a1.88,1.88,0,0,1,1.68.28,3,3,0,0,0,1.69.56q.84,0,.84-1.68c-1.88,0-2.81-.75-2.81-2.25a18.86,18.86,0,0,1,.56-4.5,8.82,8.82,0,0,0,.29-3.65c-.2-.93-1.22-1.21-3.1-.84-.75.38-1,1.6-.84,3.65s-.47,2.91-2,2.53A4.52,4.52,0,0,1,166,380a13.13,13.13,0,0,1,2-3.65,8.42,8.42,0,0,0,1.4-2.25c.19-.56-.66-1-2.53-1.4a11.43,11.43,0,0,0-.84,2.25c-.19.75-.84.94-2,.56a7.11,7.11,0,0,0-2.81-3.94Q159,369.87,157.86,372.68Zm9,28.1q1.69-3.37,3.1-3.37c.93,0,1.59.65,2,2a15.59,15.59,0,0,1,.56,4.22c0,1.5-.19,2.44-.56,2.81q-1.12,1.13-2.25-2.81C168.91,401,168,400,166.85,400.78Zm19.67-117.46c-2.24,0-3.18-.93-2.81-2.81a7.1,7.1,0,0,1,3.1-.56c1.3,0,2-.75,2-2.25q-4.5-1.12-5.9.56a4.87,4.87,0,0,0-1.12,3.93,3.85,3.85,0,0,0,1.68,3.09C184.36,285.85,185.4,285.2,186.52,283.32Zm5.06,142.75a17.13,17.13,0,0,1-5.34.28c-1.68-.18-2.53.66-2.53,2.53a5.52,5.52,0,0,1,3.94,2.53,7.44,7.44,0,0,0,3.93,3.09Zm2.81-156.8a12.39,12.39,0,0,1,4.78-2.25,6.58,6.58,0,0,0,4.21-3.37,11.75,11.75,0,0,0-5,.84l-3.94,2v-5.62a7,7,0,0,1,4.78-.56,25.41,25.41,0,0,1,4.5,1.4A16.9,16.9,0,0,0,207,262.8c.93.2,1.4-.46,1.4-2q-3.93-1.12,0-2.81,9-3.93,12.09-1.69a22.45,22.45,0,0,1,4.77,4.5c-.37-3.74-.28-6.09.28-7a2,2,0,0,1,2.53-.84,6.92,6.92,0,0,1,3.1,2.25c.93,1.12,1.77,2.06,2.52,2.81a14.25,14.25,0,0,0-2.81-8.43,5.38,5.38,0,0,1,5.62,1.12c1.87,1.5,2.81,1.12,2.81-1.12q.56-3.93,4.5-2.81a10.31,10.31,0,0,0,6.74,0c.75-.37,1.41-1.5,2-3.37a2.84,2.84,0,0,1,3.65-2.25,17.51,17.51,0,0,0,8.15.28,23.41,23.41,0,0,0,5.9-2.53c0,1.5.85,2.34,2.53,2.53s2.72-.65,3.09-2.53a2.36,2.36,0,0,1-2-1.41c-.56-.93.09-1.59,2-2,1.87-1.5,3.56-2.15,5.06-2a7.28,7.28,0,0,1,3.66,1.4,23.18,23.18,0,0,0,2.81,2c.93.56,1.77.1,2.53-1.4q-3.37,0-3.38-5.62,8.43,1.13,14.05-.85a49.78,49.78,0,0,0,10.12-4.77,92,92,0,0,0,8.71-6.19,28.86,28.86,0,0,1,9.84-5.05,3.32,3.32,0,0,1-1.41,3.09,2.74,2.74,0,0,0-1.4,2.53q3.36,0,4.77-1.41a10.07,10.07,0,0,0,2.25-3.65,13.45,13.45,0,0,1,2.25-3.94A5.17,5.17,0,0,1,340,208a19,19,0,0,1,6.75-3.37q3.93-1.12,4.49-5.62a231.32,231.32,0,0,0-39.9,5.9q-20.24,4.77-35.41,8.15-2.81,1.13-4.49,1.68a37.31,37.31,0,0,1-4.5,1.13,15.69,15.69,0,0,1-3.37,1.12c-.38,0-.94.56-1.69,1.69a2.92,2.92,0,0,1-3.09.56,13,13,0,0,0-2.53-.56c-.37,0-.37.47,0,1.4s.37,1.6,0,2a23,23,0,0,1-2.52-.28,5.34,5.34,0,0,0-3.1.28c-1.88.75-3.75,1.6-5.62,2.53s-3.75,1.78-5.62,2.53a42.55,42.55,0,0,1-6.18,1.4,20.87,20.87,0,0,0-5.06,1.41,38.89,38.89,0,0,1-11,5,25.63,25.63,0,0,0-8.71,3.94,31.13,31.13,0,0,1-7.58,3.65,13.55,13.55,0,0,0-6.47,4.22c-.75.75-.75,2.16,0,4.21s.75,3.47,0,4.22a3,3,0,0,1-2.53,1.4,5.37,5.37,0,0,0-3.09,1.41,39.87,39.87,0,0,0-1.4,8.71c-.2,3.19-.48,5.9-.85,8.15q4.5,1.13,5.34-1.69A7,7,0,0,1,194.39,269.27ZM200.58,448v-5.06h-6.19V448Zm19.1-181.53c.75.75.93,2,.57,3.65s.36,2.35,2.24,2q1.13-7.31-2.53-8.71a62.8,62.8,0,0,0-8.71-2.53c-.75,1.88-.84,3.18-.28,3.93a2.94,2.94,0,0,0,2.53,1.13h3.37A6.3,6.3,0,0,1,219.68,266.46Zm19.67,229.3a10.05,10.05,0,0,1,.85-4.5l2-3.93h-5.62q-2.81,0-2.81,3.37c1.87,0,2.9.76,3.1,2.25A3.06,3.06,0,0,0,239.35,495.76ZM253.4,260.84c.75-.75.19-1.31-1.68-1.69a17.45,17.45,0,0,1-3.94-1.12q-1.12,0-3.09-3.09c-1.31-2.06-2.16-2.9-2.53-2.53-.75.75-.56,1.88.57,3.37S244.6,258,245,258a16.06,16.06,0,0,1,3.38,2.81C249.84,262.34,251.53,262.34,253.4,260.84Zm-5.62,237.73q1.13,5.06,1.69,4.78c.37-.2.28-1.13-.28-2.81a21.18,21.18,0,0,0-2.53-5.06,4.09,4.09,0,0,0-4.5-2,18.15,18.15,0,0,0,1.41,4.5C244.13,499.13,245.54,499.32,247.78,498.57ZM281.5,246.79a10.14,10.14,0,0,1,4.5.84l3.94,2v-8.43h-6.19a4.36,4.36,0,0,1-.84,3.09A6.32,6.32,0,0,0,281.5,246.79Z"/><path d="M413,498.57c-.76-3-.66-5.15.28-6.46a23.38,23.38,0,0,0,2.53-4.78c0-1.49-.38-2.34-1.12-2.53s-1.6.19-2.53,1.12a10.7,10.7,0,0,0-2.25,3.37,3.62,3.62,0,0,0,.28,3.66c-1.12,0-1.6-1.31-1.41-3.94s.37-5.14.57-7.58a19.78,19.78,0,0,0-.28-5.9q-.57-2.25-4.5,1.12c-2.25-1.12-2.9-2.53-2-4.22s2.72-2.33,5.34-2q-5.61-5.61,2.25-5.62-2.25-2.25-1.69-3.66a7.49,7.49,0,0,1,2.25-2.81,45.21,45.21,0,0,0,3.37-3.09,6,6,0,0,0,1.69-4.49,10.62,10.62,0,0,1,6.18-.56q3.93.56,7.59,1.4a30.18,30.18,0,0,0,6.74.84,6.48,6.48,0,0,0,4.78-1.68V448a3.75,3.75,0,0,1,3.09.28c1.31.56,2.15.47,2.53-.28.75-1.13,1.31-1.69,1.69-1.69a2.76,2.76,0,0,1,1.4.56,6.58,6.58,0,0,0,2.53.85A38.31,38.31,0,0,0,458,448c2.62,0,4.5-.47,5.62-1.41s3-1.4,5.62-1.4q-1.12,4.5,1.69,5.62c1.87.75,3,1.68,3.37,2.81q.56,1.13,2,5.06c.93,2.62,1.4,3.75,1.4,3.37-1.12,1.12-1.68,1.88-1.68,2.25s.28.65.84.84,1.21.38,2,.56,1.3.84,1.68,2a38.63,38.63,0,0,1,0,9.27,76,76,0,0,0,0,13.21c-4.13,1.5-6.18,4.31-6.18,8.43-1.12,0-1.69-.65-1.69-2a6.43,6.43,0,0,0-1.12-3.65c-1.5,0-2.35.47-2.53,1.4a5.91,5.91,0,0,0,.28,3.09,14.87,14.87,0,0,0,1.41,3.1q.84,1.4.84.84,0,.56-4.5,7a42.79,42.79,0,0,1-9,9.84,3.75,3.75,0,0,1-3.09-.28c-1.32-.56-2.16-.48-2.53.28a28.94,28.94,0,0,1-4.5,2.53q-3.93,2-9.55.28a5.51,5.51,0,0,1-2.25-3.37c-.38-1.5-1.5-2.25-3.37-2.25-1.5,0-2.34-1-2.53-3.09s-1.22-2.91-3.09-2.53q-2.25,3.93-2,2.53c.19-.94.47-2.25.85-3.94a20.54,20.54,0,0,0,.56-3.93c0-.94-.76-.1-2.25,2.53q-4.5-.57-5.62-3.94C417.88,500.82,416,499.32,413,498.57ZM463.59,457V450.8H458V457Zm5.62,10.68V462h-5.62v5.62Z"/><path d="M499,469.34c.38-1.49.84-2,1.41-1.68a3.58,3.58,0,0,1,1.12,2.53,29.46,29.46,0,0,1,.28,4.21v2.81q-1.12,3.94-2.81,2C497.87,477.87,497.87,474.6,499,469.34ZM659.16,313.67q-1.12,1.68,2,1.4t3.09.84c.37,1.88.19,3-.56,3.38A3.67,3.67,0,0,0,662,321c-.75.76-.75,2,0,3.66s.75,3.09,0,4.21a10,10,0,0,1-3.09.84,3.1,3.1,0,0,0-2.53,1.41,33.39,33.39,0,0,0-2,10.12q-.3,5.63-5.9,5.05a22.84,22.84,0,0,1-.28,8.15,23.62,23.62,0,0,1-2.53,5.9c-1.13,1.88-2.25,3.66-3.38,5.34a15.4,15.4,0,0,0-2.24,6.47c-2.25-.75-3.57-.47-3.94.84s-.75,2.72-1.12,4.21a5,5,0,0,1-2.53-1.68,3.65,3.65,0,0,0-3.09-1.13q0,6.75,5.62,7.87a19.55,19.55,0,0,1-6.47,10.68c-3.18,2.63-4.77,6.74-4.77,12.36-1.5,0-2.16-.64-2-2a3.48,3.48,0,0,0-.84-3.09c-1.88.75-2.91,1.59-3.09,2.53a4.72,4.72,0,0,0,.56,3.09c.56,1.12,1.21,2.34,2,3.65a4.41,4.41,0,0,1,.57,3.65q-2.82,0-2.25,2.81a5.9,5.9,0,0,1-.56,4.5,9.9,9.9,0,0,1-2.81,2.81c-1.5,1.12-2.25,1.88-2.25,2.25a6.68,6.68,0,0,0,.28,4.21c.56,1.69.47,2.91-.28,3.66-.38.75-1.32.84-2.81.28s-2.44-.65-2.81-.28a9.4,9.4,0,0,0,0,6.46,11.23,11.23,0,0,1,0,7,6,6,0,0,1-4.22-.28,7.57,7.57,0,0,1-2.24-2l-1.69-2.25a3,3,0,0,0-2.53-1.13c.37.76.28,2.07-.28,3.94s-.47,3,.28,3.37c0,.38.84.47,2.53.28s2.71-.28,3.09-.28a4.2,4.2,0,0,1-1.69,4.5q-2.25,1.68,1.69,6.18a6.1,6.1,0,0,0-4.5,1.68L594.81,464a8.56,8.56,0,0,1-2.81,2q-1.41.57-3.65-1.68c-.76,3,0,4.49,2.25,4.49a32.77,32.77,0,0,1,6.18.56c-1.88,1.51-2.44,3.94-1.69,7.31s.37,6.18-1.12,8.43c-.38,0-1.32-.09-2.81-.28s-2.44-.09-2.81.28c0,.76.65,1.78,2,3.09a3.38,3.38,0,0,1,.84,4.22c.37-.75,0-.37-1.12,1.12s-1.69,2.06-1.69,1.69a21,21,0,0,0-2.25,5.62c-.75,2.61-.75,6.74,0,12.36-1.5,0-2.34.56-2.53,1.69a20.17,20.17,0,0,0-.28,3.37,29.12,29.12,0,0,0-3.93-1.69c-1.13-.37-1.88.19-2.25,1.69-.76-1.12-1.6-2.25-2.53-3.37a16.81,16.81,0,0,1-2.53-4.5c-1.88,1.13-2.25,2.34-1.12,3.65s.74,3.46-1.13,6.47q-4.5.56-5.9-1.41c-.94-1.32-2.9-1.6-5.9-.84a13.85,13.85,0,0,1,4.22-3.09c1.31-.56,2.89-1.22,4.77-2-.37-1.5-1.88-2.72-4.49-3.65a19.84,19.84,0,0,0-6.18-1.41,13.5,13.5,0,0,0-7.87,1.13q-3.37,1.68-3.37-1.13a16.49,16.49,0,0,0-5.62,7.31A8,8,0,0,0,534.4,514a31.71,31.71,0,0,1-3.94.28,5.9,5.9,0,0,1-3.09-.84c-.94-.56-1.6-2.34-2-5.34a32.73,32.73,0,0,0,5.05,1.69c.37,0,.19-.38-.56-1.13a32.13,32.13,0,0,1-2.81-3.37,8.23,8.23,0,0,1-1.68-5.06c-1.88.76-2.73,1.5-2.53,2.25A9.41,9.41,0,0,0,524,505a8.84,8.84,0,0,1,1.12,2.81c.19.93-.47,1.78-2,2.53-1.5,0-2.25-.56-2.25-1.69a16.68,16.68,0,0,0-.56-3.93c-.37-1.12-.85-1.6-1.41-1.4a1.29,1.29,0,0,0-.84,1.4,11.48,11.48,0,0,1-6.75-4.21,44.06,44.06,0,0,0-4.49-5.34c-.75-.75-.93-1.41-.56-2s-.37-.84-2.25-.84c-1.13,0-1.21-.28-.28-.85s2-1.12,3.09-1.68a4.78,4.78,0,0,0,2-1.41c.19-.37-1.22-.56-4.22-.56a18.75,18.75,0,0,0,1.12-5.9v-5.34a33.5,33.5,0,0,1,.57-5.9,14.32,14.32,0,0,1,3.37-6.46c1.88.37,2.53.94,2,1.68a2.43,2.43,0,0,1-2,1.13c.38,1.88.47,2.53.28,2a17.75,17.75,0,0,1-.56-2.81,13.62,13.62,0,0,1,0-3.93q.28-2,3.09-.84,3.38-1.12.84-5.62c-1.68-3-2-5.43-.84-7.31a2.23,2.23,0,0,1,2.81-.28c1.12.56,2.06.1,2.81-1.41,0-1.12-1.13-1.68-3.37-1.68s-3-.37-2.25-1.13a1.57,1.57,0,0,0,1.12-.56c.38-.37.66-.56.85-.56s.47-.18.84-.56a22.92,22.92,0,0,1,2.81-1.13c.38-1.49-.19-2.05-1.69-1.68s-1.87.94-1.12,1.68q-2.81.57-2.25-.84a30.1,30.1,0,0,1,1.69-3.37,7.85,7.85,0,0,0,1.12-3.94c0-1.3-1.12-2-3.37-2,0-2.62,1-3.38,3.09-2.25s2.91,1.88,2.53,2.25q2.82-1.12,1.12-5.06T520.35,416h5.06c0-1.49-.66-2.24-2-2.24a6.87,6.87,0,0,1-3.09-.57,16.46,16.46,0,0,0,.28-5.34c-.2-2.05-.28-3.93-.28-5.62a7.7,7.7,0,0,1,.84-3.93c.56-.93,2-1,4.22-.28.74-2.25.56-3.65-.57-4.22a10.13,10.13,0,0,0-4.49-.84q2.24-5.06,8.43-7.87a18.23,18.23,0,0,1,0-6.46,50.21,50.21,0,0,1,1.4-5.06c.56-1.69,1-3.37,1.41-5.06a18.71,18.71,0,0,0,0-6.46q3.36-.56,3.93-2.25a7.89,7.89,0,0,0,.28-3.65,11.74,11.74,0,0,1,0-3.65c.19-1.13,1.41-2.25,3.66-3.38-1.88-1.87-2.53-3.37-2-4.49a37.59,37.59,0,0,0,2-5.62,9.41,9.41,0,0,0-.57-2.81,2.54,2.54,0,0,1,.57-2.81h2.24A32.18,32.18,0,0,0,544,321.25c0-4.3.37-6.83,1.13-7.58,0-.37.74-.09,2.24.84a7.39,7.39,0,0,0,3.38,1.4,9,9,0,0,1,.56-2.24q.56-1.69,2.25,0c0-1.87-.66-2.81-2-2.81a11.26,11.26,0,0,1-3.65-.57c-.76-1.87-.85-3.37-.29-4.49s1.13-2.15,1.69-3.09a20,20,0,0,0,1.41-2.81,8.15,8.15,0,0,0,0-4.22c2.61,1.88,4.11,2.25,4.49,1.13s2.25-1.5,5.62-1.13c0-1.87-.75-2.81-2.25-2.81a25.51,25.51,0,0,1-5-.56q2.24-1.68,3.09-7t1.68-10.11a22.6,22.6,0,0,1,2.53-7.59c1.13-1.87,3.18-2.05,6.18-.56-1.88-2.62-3.09-4.3-3.65-5.06a2.17,2.17,0,0,1-.56-2,12,12,0,0,1,1.12-2.24,16.14,16.14,0,0,0,1.41-5.34,9.73,9.73,0,0,1,3.93.56,20,20,0,0,1,2,1.12,2.3,2.3,0,0,0,2,.28,11.3,11.3,0,0,0,3.37-2c-1.5-1.13-3-2.34-4.5-3.66s-2.81-2.53-3.93-3.65a3.55,3.55,0,0,0,1.4-3.65,6.1,6.1,0,0,1,.85-4.22c.36-.74,1.4-1.21,3.09-1.4s2.71-.65,3.09-1.41c0-.74-.56-1.77-1.69-3.09a4.5,4.5,0,0,1-1.12-4.21c0-.37.93-1.31,2.81-2.81s2.81-2.44,2.81-2.81a5.64,5.64,0,0,0-2-4.5q-2-1.68-.84-5.62c2.25-.37,3.74-.28,4.49.28a12.9,12.9,0,0,1,2.25,2.25,30.26,30.26,0,0,0,2.25,2.53q1.13,1.13,4.5,0-2.82-2.24-5.06-4.22c-1.5-1.31-.76-3.27,2.25-5.9a29.55,29.55,0,0,1-3.38,2,10.13,10.13,0,0,1-4.49.84c0-2.25.84-3.74,2.53-4.49a43.67,43.67,0,0,1,5.34-2,11.05,11.05,0,0,0,4.77-2.81q2-2,.85-6.46a45.74,45.74,0,0,1-4.22,3.93c-.56.38-.84,0-.84-1.12s.09-2.62.28-4.5a12,12,0,0,0-.84-5.62,3.1,3.1,0,0,1,2.52,2.81c.19,1.5,1.22,2.25,3.1,2.25,1.12,0,1.59-.28,1.4-.85s-.38-1.12-.56-1.68a5.25,5.25,0,0,1-.28-1.69q0-.84,2.25-.84A13.34,13.34,0,0,0,594,181c-.76-1.12-1.4-2.05-2-2.81a4.12,4.12,0,0,1-.84-2.53,13,13,0,0,1,1.69-4.77c1.87.37,2.71,1.22,2.53,2.52a14,14,0,0,0,.28,4.78,15.54,15.54,0,0,0,3.93-7.59,15.55,15.55,0,0,1,3.93-7.58c0-3-1.12-3.46-3.37-1.41s-3,4.22-2.25,6.46c-1.87-.36-2.81-.93-2.81-1.68a5.37,5.37,0,0,1,1.13-2.81,40,40,0,0,0,2.25-3.94,4,4,0,0,0-.57-4.49h11.24c0-1.49-.93-2.15-2.81-2a18.33,18.33,0,0,1-5.62-.28V140c2.62,2.63,4.12,3.75,4.5,3.38s.28-1.41-.28-3.09-1.32-3.84-2.25-6.47a47.68,47.68,0,0,1-2-6.74,12.66,12.66,0,0,1,4.22,2,13.93,13.93,0,0,0,3.65,2,4.32,4.32,0,0,0,3.09,0c.93-.37,1.78-1.68,2.53-3.93q5.07,3.38,9.28,5.9c2.81,1.69,5.14,1.4,7-.84q2.81-.55,2.25,1.68c-.38,1.5-.19,2.63.56,3.37s1.69.76,2.81,0,2.06-.74,2.81,0l2.81,5.06a5.81,5.81,0,0,0,3.65-1.68,3.57,3.57,0,0,1,4.22-.57q1.13.57,2.81,3.94c1.12,2.25,2.05,3.56,2.81,3.93.75,0,1.87-.74,3.37-2.25a4.37,4.37,0,0,1,5.06-1.12c.37,2.25-.56,3.37-2.81,3.37a77.85,77.85,0,0,0,9.84,9.28,159.64,159.64,0,0,1,12.08,10.95c.74.76.93,1.32.56,1.69s.37.76,2.25,1.13l7.3,7.3a12.2,12.2,0,0,1,.57,8.15q-1.14,4.22-5.06-.28v5.06q.55,2.82,2.25,1.12t5.62-1.12a13,13,0,0,1-1.13,4.49,34.54,34.54,0,0,0-1.68,5.34,6.25,6.25,0,0,0,.28,4.22c.56,1.12,2.33,1.5,5.34,1.12a17.71,17.71,0,0,0-4.5,6.75,22.89,22.89,0,0,0-1.12,7.3c0,2.63.08,5.06.28,7.31a16.84,16.84,0,0,1-.85,6.74c0,.76-.75,1.22-2.24,1.41s-2.25.66-2.25,1.4a14,14,0,0,0-.84,8.15,7.86,7.86,0,0,1-2,7l-2.81,2.81a13.74,13.74,0,0,0-1.41,7.3,16.73,16.73,0,0,1-1.4,7.87,9.65,9.65,0,0,1-2.81,2.81,25.11,25.11,0,0,1-3.37,2.25,3.58,3.58,0,0,0,0,2.81,3.66,3.66,0,0,1,0,2.81c0,.38.18-.19.56-1.69s.84-3.17,1.4-5.05,1.13-3.66,1.69-5.34.84-2.34.84-2a6.61,6.61,0,0,0,0,5.34,5.36,5.36,0,0,1,0,4.78c-.38.75-1.31,1.22-2.81,1.4s-2.25.66-2.25,1.41a8.75,8.75,0,0,0,0,6.18,8.75,8.75,0,0,1,0,6.18,9,9,0,0,1-3.09,2.81c-1.68,1.12-2.53,2.06-2.53,2.81a19.29,19.29,0,0,0-.28,8.71,30.88,30.88,0,0,1,.28,9.27A11.63,11.63,0,0,0,659.16,313.67ZM558,495.2a32.52,32.52,0,0,1-1.4-8.43c-.2-3.38-1.22-5.81-3.09-7.31a6.22,6.22,0,0,1,.28,4.78,14.67,14.67,0,0,1-2,3.37,6.59,6.59,0,0,0-1.41,2.81c-.19.94.85,1.6,3.1,2,0-1.87.93-2.62,2.81-2.25a14,14,0,0,0,0,5.62C556.68,497.64,557.25,497.44,558,495.2Zm11.8,27.54a3.13,3.13,0,0,1-2.81,3.37,10.33,10.33,0,0,1-5.34-.28c-1.68-.57-2.62-1.22-2.81-2s1.59-1.12,5.34-1.12Zm10.68-18q2.24-2.25,1.13-3.37a5.74,5.74,0,0,0-3.38-1.41,8,8,0,0,0-4.21.57,2.71,2.71,0,0,0-2,2.52c0-.37,1.49-.28,4.5.29S580.85,504.37,580.48,504.75Zm1.13-254.59a6.86,6.86,0,0,0-.28-4.22,13.14,13.14,0,0,0-2.25-4.21,5.27,5.27,0,0,0-2.81-2c-.94-.18-1.79.66-2.53,2.53A2.2,2.2,0,0,1,576,243.7c.36.94.74,2,1.12,3.09a9.83,9.83,0,0,0,1.4,2.81C579.08,250.35,580.1,250.54,581.61,250.16Zm29.78-84.3c-.75-3.74,0-5.81,2.25-6.19s3.37-1.87,3.37-4.49a5.3,5.3,0,0,0-4.77,0,6.27,6.27,0,0,0-2.81,3.37,9.24,9.24,0,0,0-.57,4.5A3.08,3.08,0,0,0,611.39,165.86Z"/><path d="M696.25,498.57q-1.12-4.5.29-6.46a23.38,23.38,0,0,0,2.53-4.78c0-1.49-.38-2.34-1.13-2.53s-1.6.19-2.53,1.12a10.87,10.87,0,0,0-2.25,3.37,3.62,3.62,0,0,0,.29,3.66c-1.13,0-1.6-1.31-1.41-3.94s.37-5.14.56-7.58a19.13,19.13,0,0,0-.28-5.9q-.57-2.25-4.5,1.12-3.36-1.68-2-4.22c.94-1.68,2.71-2.33,5.34-2q-5.61-5.61,2.25-5.62-2.26-2.25-1.69-3.66a7.4,7.4,0,0,1,2.25-2.81q1.68-1.39,3.37-3.09a6.06,6.06,0,0,0,1.69-4.49,10.61,10.61,0,0,1,6.18-.56q3.91.56,7.58,1.4a30.27,30.27,0,0,0,6.75.84,6.51,6.51,0,0,0,4.78-1.68V448a3.75,3.75,0,0,1,3.09.28c1.3.56,2.15.47,2.53-.28.74-1.13,1.3-1.69,1.68-1.69a2.82,2.82,0,0,1,1.41.56,6.52,6.52,0,0,0,2.53.85,38.31,38.31,0,0,0,5.62.28c2.61,0,4.49-.47,5.62-1.41s3-1.4,5.62-1.4q-1.14,4.5,1.68,5.62c1.87.75,3,1.68,3.37,2.81q.56,1.13,2,5.06c.93,2.62,1.41,3.75,1.41,3.37-1.13,1.12-1.69,1.88-1.69,2.25s.28.65.84.84,1.21.38,2,.56,1.31.84,1.69,2a38.63,38.63,0,0,1,0,9.27,76,76,0,0,0,0,13.21q-6.19,2.25-6.19,8.43c-1.12,0-1.68-.65-1.68-2A6.44,6.44,0,0,0,754.7,493c-1.5,0-2.34.47-2.53,1.4a5.92,5.92,0,0,0,.29,3.09,15.38,15.38,0,0,0,1.4,3.1q.84,1.4.84.84,0,.56-4.49,7a42.79,42.79,0,0,1-9,9.84,3.75,3.75,0,0,1-3.09-.28c-1.32-.56-2.17-.48-2.53.28a28.94,28.94,0,0,1-4.5,2.53q-3.95,2-9.55.28a5.46,5.46,0,0,1-2.25-3.37c-.38-1.5-1.5-2.25-3.37-2.25-1.51,0-2.35-1-2.53-3.09s-1.22-2.91-3.09-2.53q-2.26,3.93-2,2.53c.18-.94.46-2.25.84-3.94a19.76,19.76,0,0,0,.56-3.93q0-1.41-2.24,2.53-4.51-.57-5.62-3.94C701.12,500.82,699.25,499.32,696.25,498.57ZM746.84,457V450.8h-5.62V457Zm5.62,10.68V462h-5.62v5.62Z"/><path d="M1129,161.36l5.06-2.53a9.14,9.14,0,0,1,6.74-.28c-.38,0-.47,1.32-.28,3.93s1,3.38,2.53,2.25v-3.37q-.57,0,3.65,1.69a28.87,28.87,0,0,0,4.78,1.68,6.26,6.26,0,0,1,3.09,4.22,7,7,0,0,0,2.53,4.21,4,4,0,0,0,3.65,1.69q2.54,0,.84,4.49c1.13,0,3.56.1,7.31.29s6,1,6.74,2.53q.55,1.68-1.12,4.21c-1.12,1.69-2.06,2.34-2.81,2a4.92,4.92,0,0,0,.56,2.25c.75,1.5,1.69,1.68,2.81.56,1.13-1.5,2-2.15,2.53-2a3.64,3.64,0,0,1,1.69,1.69c.56.94,1.21,2.06,2,3.37a5.42,5.42,0,0,0,3.94,2.53,13.5,13.5,0,0,0,.28,6.18,32,32,0,0,1,1.12,5.06,6.73,6.73,0,0,1-.56,3.93c-.56,1.13-2.16,2.07-4.78,2.81,0,1.88.29,2.81.85,2.81a5.42,5.42,0,0,0,2.53-1.12c1.12-.75,2.33-1.49,3.65-2.25s2.71-.56,4.21.56q4.5,7.88,3.66,20.8t-2,26.41c-2.62-.37-4,.48-4.21,2.53a14,14,0,0,1-2,5.9,23.84,23.84,0,0,1-6.18,4.22,15.65,15.65,0,0,0-5.62,4.21c-.76.76-.85,1.78-.28,3.09s.46,2.35-.29,3.09c-1.5,1.5-3.46,3.38-5.9,5.62s-4.59,4.32-6.46,6.19-3.93,4-6.18,6.46a29.75,29.75,0,0,1-6.18,5.34q-1.14,1.13-3.09,0c-1.32-.75-2.17-.75-2.53,0a6.86,6.86,0,0,0-1.69,3.09,7,7,0,0,1-1.69,3.09,21.25,21.25,0,0,1-4.77,1.41,8.77,8.77,0,0,0-3.66,1.4,23.77,23.77,0,0,0-3.37,2.81l-2.81,2.81-3.93,2q-1.7.84-2.81,4.21-3.94-1.11-5.9.28a22.48,22.48,0,0,1-4.78,2.53,19.19,19.19,0,0,0-5.62,3.66,9.09,9.09,0,0,1-6.18,2.52,5.43,5.43,0,0,0-2.81,1.13,28.36,28.36,0,0,1-2.81,1.69c-.76.75-1.79,1.68-3.09,2.8s-2.35,2.07-3.1,2.82a19,19,0,0,1-7,1.12,19.25,19.25,0,0,0-7,1.12,8.48,8.48,0,0,0-3.65,3.66,6.83,6.83,0,0,1-2.53,3.09,4.76,4.76,0,0,1-4.49,0,3.72,3.72,0,0,0-3.94,0c-.75,0-1.32.94-1.68,2.81s-.94,3-1.69,3.37a3.89,3.89,0,0,1-3.93-1.12,8.49,8.49,0,0,1-1.69-2.25c-1.88.75-2.53,1.78-2,3.09s.09,2.34-1.4,3.09a18.48,18.48,0,0,1-7.31.84,13.82,13.82,0,0,0-7.3,1.41,22.5,22.5,0,0,1-5.06,2.81q-2.82,1.13-3.38-2.81c-1.87-.37-2.72.56-2.52,2.81s-.1,3.56-.85,3.93a15.84,15.84,0,0,1-8.15,1.41,19,19,0,0,0-8.71,1.4,3.71,3.71,0,0,1-3.09-.28c-1.32-.56-2-.46-2,.28-.37,0-.56.56-.56,1.69v1.12a10.16,10.16,0,0,1-4.78,0,22.3,22.3,0,0,0-4.77-.56,15.48,15.48,0,0,0-4.22.56,5.06,5.06,0,0,0-3.09,2.81,4.21,4.21,0,0,1-2.53-3.37c-.19-1.49-1.22-2.25-3.09-2.25s-2.44.56-1.68,1.69,1.12,1.5,1.12,1.12a3.09,3.09,0,0,1-2.81,2.53q-2.25.29-2.25,3.09-11.25-2.81-18.83-2.25t-21.63,5.06c-1.51-1.49-2.25-4.3-2.25-8.43q-2.82.57-2.53,3.09c.18,1.69,1,2.53,2.53,2.53-.38,1.88-1.13,3-2.25,3.37a6,6,0,0,1-3.65,0,9.28,9.28,0,0,1-3.37-1.68,23.94,23.94,0,0,1-2-1.69q-10.12,3.94-10.12,20.23a17.42,17.42,0,0,0-5.62,6.19,30.87,30.87,0,0,0-2.53,7.3,56.33,56.33,0,0,0-1.12,8.15,24.63,24.63,0,0,1-2,8.15,1.8,1.8,0,0,1-1.68,1.13c-.76,0-1.13.56-1.13,1.68v2.81a31,31,0,0,0-1.68,5.62,97,97,0,0,1-2.81,9.56c0,.37-.38.47-1.13.28a7.6,7.6,0,0,0-1.68-.28c-.76,3-.94,5.25-.57,6.74s-.37,3.19-2.24,5.06c-.76.75-1.13,3.56-1.13,8.43a100.09,100.09,0,0,1-.56,11.8c-3-.75-5-2.15-5.9-4.22s-2.91-1.77-5.9.85c.37,1.88.84,2.81,1.4,2.81a4.65,4.65,0,0,0,2-.56,10.74,10.74,0,0,1,2.53-.85c.93-.18,1.77.48,2.53,2a32.7,32.7,0,0,1-2.25,9.55,58.62,58.62,0,0,1-3.93,7.59,36.72,36.72,0,0,0-3.66,7.87,31.06,31.06,0,0,0-1.4,9.84q-6.19,0-9,6.74H812.58a19.09,19.09,0,0,0-6.46-5.9,17.87,17.87,0,0,1-6.46-6.46,30,30,0,0,0-3.94-4.78c-2.24-2.44-3.37-4.59-3.37-6.46q.57-2.26-1.4-5.34t2.53-3.66c-1.13-1.87-2.62-2.53-4.5-2s-4.12-.65-6.74-3.66a51.82,51.82,0,0,1,5-5.34q1.69-1.4-7.3-1.4c.75-3,2.44-4.68,5-5.06a11.54,11.54,0,0,0,6.75-3.37q-3.93-3.93-.84-5.34c2.06-.93,3.65-3.09,4.77-6.46a6.88,6.88,0,0,1-2.81,1.68l-3.37,1.13a5.07,5.07,0,0,0-2.53,1.68c-.56.76-.65,2.25-.28,4.5a6.91,6.91,0,0,1-2.81-5.62,35.21,35.21,0,0,1,.84-7.31,53.16,53.16,0,0,1,2.25-7.59,51,51,0,0,0,2-5.9,51.88,51.88,0,0,0,1.12-10.11c0-3,.2-6.55.57-10.68a22.32,22.32,0,0,1,3.65-2,12.2,12.2,0,0,1,4.78-.84,8.87,8.87,0,0,0-3.94-3.09c-1.49-.56-1.87-2.34-1.12-5.34-.37-3,.47-4.68,2.53-5.06s4-.75,5.9-1.12c0,1.88-.56,2.72-1.69,2.53a4.57,4.57,0,0,0-3.37.84c0,3,1.4,3.65,4.22,2s4-3.46,3.65-5.34c0-1.87-.85-2.81-2.53-2.81a19.38,19.38,0,0,1-4.78-.57,61,61,0,0,1,3.37-12.36,58.83,58.83,0,0,0,3.38-13.49q3.91,3.38,6.74.56t2.81-10.11a3.65,3.65,0,0,0-3.09,3.65,20.94,20.94,0,0,1-1.41,5.9c-2.24-2.25-2.72-5.8-1.4-10.68s2.53-9.17,3.65-12.92c.37-.37,1.13.19,2.25,1.68a4,4,0,0,1,.56,4.5c.37-1.12.93-1.49,1.69-1.12s1.12-.37,1.12-2.25a5.94,5.94,0,0,0-1.12-4.78c-1.13-1.69-1.32-4-.56-7a25,25,0,0,0,2.81,1.68c1.49.76,2.43.94,2.81.56.37-.74-.1-2.15-1.41-4.21a7.19,7.19,0,0,1-.84-6.47,2.26,2.26,0,0,0,1.68-.56A13,13,0,0,0,822.7,335a4.84,4.84,0,0,0-.28-1.4,1.27,1.27,0,0,1,.28-1.41,31.3,31.3,0,0,0,1.69-3.93c.36-1.13.93-2.81,1.68-5.06a22.32,22.32,0,0,0,2-3.65c.56-1.31,1.21-2.9,2-4.78.37-1.87.93-4.3,1.68-7.31a21.23,21.23,0,0,0-.56-10.67c2.62-.37,4.3,0,5.06,1.12s2,1.69,3.93,1.69c-1.12-2.62-1.22-4.87-.28-6.75a14,14,0,0,1,3.37-4.49,23.33,23.33,0,0,1,5.91-3.38c.74-.74.36-1.3-1.13-1.68s-1.88.19-1.12,1.68c-1.88,0-2.81-.37-2.81-1.12a3.86,3.86,0,0,1,1.4-2.53c.93-.93,1.87-2,2.81-3.09a5.44,5.44,0,0,0,1.41-2.25,10.64,10.64,0,0,0,.56-5.9,8.33,8.33,0,0,1,.56-5.34,7.16,7.16,0,0,1,3.37-1.69c1.5-.36,2.25-.74,2.25-1.12a11.37,11.37,0,0,0,.56-6.18,11.38,11.38,0,0,1,.56-6.18c.37-.75,1.41-1.22,3.1-1.41s2.71-.46,3.09-.84a27.35,27.35,0,0,0,1.4-9.56c-.19-2.61.85-5.42,3.09-8.43a49.22,49.22,0,0,0,2.81-5.05c1.13-2.25,1.31-5.43.57-9.56,3-2.25,4.68-2.81,5-1.68s2.62,1.68,6.75,1.68c.37-1.87-.48-2.62-2.53-2.25s-3.29.2-3.65-.56a11.09,11.09,0,0,1,0-7q1.11-3.66,2.24-7a28.93,28.93,0,0,0,1.41-6.74,10.09,10.09,0,0,0-1.41-6.18c1.87,0,3.18-.37,3.94-1.13a5.33,5.33,0,0,0,1.4-3.09c.19-1.31.37-2.9.56-4.78a20.43,20.43,0,0,1,1.41-5.62c0-.74.93-1.77,2.81-3.09s2.81-2.15,2.81-2.53q1.13-2.8.28-7.58t.84-7.59c.37,0,1.22.66,2.53,2s2.34,1.78,3.09,1.4c1.5-.37,2.34-1,2.53-2a2.32,2.32,0,0,0-.56-2.24,2.4,2.4,0,0,0-1.68-.85c-.57,0-.66.56-.29,1.69a1.11,1.11,0,0,0-1.68-.56c-.76.37-1.13-.37-1.13-2.25.37-.75.93-2,1.69-3.65s1.49-3.46,2.25-5.34a3.67,3.67,0,0,1,1.68-1.69c.75-.37,1.13-.75,1.13-1.12a15.08,15.08,0,0,0,.56-7.31,14.86,14.86,0,0,1,.56-7.31c0-.37.93-.37,2.81,0s2.81.38,2.81,0q.56-1.11-1.68-4.77c-1.5-2.44-1.32-4.59.56-6.47q2.8-3.91,6.18-2.81a10,10,0,0,0,7.31-.56c.74,0,2-.93,3.65-2.81s2.53-3,2.53-3.37a2.7,2.7,0,0,1,2.53,1.69c.56,1.12,1.59,1.5,3.09,1.12a5.43,5.43,0,0,0,2.81-1.12c1.12-.75,1.31-1.31.56-1.69q5.05,1.13,7.31,3.09a15.69,15.69,0,0,0,6.18,3.09,10.28,10.28,0,0,1,5.62-1.4l4.5.56c1.49.19,3.17.47,5,.84a23.27,23.27,0,0,0,7.31,0,31.86,31.86,0,0,0,9,11.8,27.23,27.23,0,0,1,8.43,12.37q5.06-2.8,15.74-3.65a154.31,154.31,0,0,1,20.79-.29h6.19v3.94a42.21,42.21,0,0,1,6.46-1.41,10.37,10.37,0,0,1,4.78.56,3.51,3.51,0,0,1,2.24,3.66,24.33,24.33,0,0,0,4.5-2.25,5.86,5.86,0,0,1,4.5-.56,69.67,69.67,0,0,1,7.58.56,31.28,31.28,0,0,1,8.71,2.25V135a7.3,7.3,0,0,0,5.62,0,7.3,7.3,0,0,1,5.62,0,2.3,2.3,0,0,1,.57,1.68c0,.76.74,1.13,2.24,1.13h2.81a9.21,9.21,0,0,0,5.06,1.12,21.92,21.92,0,0,1,8.43,2.25c.75.38,1,.84.85,1.4s.46,1,2,1.41a9.64,9.64,0,0,1,4.5,1.68,54.35,54.35,0,0,1,5.62,3.94c1.49.75,3.09,1.6,4.78,2.53s4,1.22,7,.84q-3.93,4.5-2.81,4.5a15.17,15.17,0,0,0,3.37-.57,7.89,7.89,0,0,1,3.38-.28C1132,156.78,1131.25,158.37,1129,161.36ZM855.3,519.92q-1.14-3.93,0-4.49a3.57,3.57,0,0,1,2.81,0l2.53.84c.56.19.08-.28-1.41-1.4a3,3,0,0,1-.84-2.81c.18-1.13-.66-1.32-2.53-.56-.38,0-.56.46-.56,1.4s-.76,1.59-2.25,2a6.17,6.17,0,0,0-1.13-2.25c-.75-.76-1.31,0-1.68,2.25,1.87,0,2.81.74,2.81,2.25A2.64,2.64,0,0,0,855.3,519.92Zm4.49-11.24a8,8,0,0,0,4.78-2,13.92,13.92,0,0,0,3.93-4.78,15.91,15.91,0,0,0,1.69-5.34c.19-1.68-.28-2.53-1.4-2.53a6.85,6.85,0,0,1-1.41,4.5,14.79,14.79,0,0,1-3.09,2.81,14.29,14.29,0,0,0-3.09,2.81A6.76,6.76,0,0,0,859.79,508.68Zm93.3-218.06c0,1.88-.1,3.85-.28,5.91s.65,3.09,2.52,3.09c-.75-1.87-.47-3.38.85-4.5a14,14,0,0,1,4.21-2.53,6.64,6.64,0,0,0,3.09-2c.57-.74-.28-1.68-2.52-2.81a3.06,3.06,0,0,1-2.53,3.38A8.9,8.9,0,0,1,953.09,290.62Zm52.26-21.91V267c0-.37.65-.37,2,0a4.26,4.26,0,0,0,3.09,0l.56-1.12v-1.13a2.24,2.24,0,0,1,2.82-.28,3.07,3.07,0,0,0,2.8.28V262c.37-.75,1.31-.93,2.82-.56a14.84,14.84,0,0,0,3.37.56,8.16,8.16,0,0,0-.28-1.68,1.65,1.65,0,0,1,.28-1.69q.56-.55,2.25,0a3.55,3.55,0,0,0,2.8,0,120.33,120.33,0,0,0,17.71-11q8.7-6.45,18.26-6.46,2.25-2.8,5.34-7c2.06-2.81,3.46-4.4,4.22-4.78.37-.74,1.21-.84,2.53-.28a3.67,3.67,0,0,0,3.09.28v-2.81c.37-.74,1.21-.84,2.53-.28a3.71,3.71,0,0,0,3.09.28c.74-.74.84-1.87.28-3.37s-.47-2.61.28-3.37a3.12,3.12,0,0,1,2.81.28,2.22,2.22,0,0,0,2.81-.28,24.48,24.48,0,0,0,3.37-2.25,9.52,9.52,0,0,0,2.81-2.81,7,7,0,0,0,.56-3.09v-3.93a16.56,16.56,0,0,1,.29-3.38c.18-.93,1-1.4,2.52-1.4,1.88,0,3.38-1.49,4.5-4.5a49.19,49.19,0,0,0,2.25-7.3,68.36,68.36,0,0,0-15.46-5.34,112.81,112.81,0,0,0-17.7-2.53,132.39,132.39,0,0,0-17.14,0A110.93,110.93,0,0,0,1043,185a11.41,11.41,0,0,1-5.62-.29,8.31,8.31,0,0,0-5.62.29c-.76,0-1.69.84-2.81,2.52a10.45,10.45,0,0,1-3.93,3.66,6.73,6.73,0,0,1-4.5.56c-1.12-.37-2.44.38-3.94,2.25-.75.75-1.68.75-2.8,0s-1.88-.75-2.25,0a6,6,0,0,0-3.09,3.65q-.86,2.53-3.66,2-7.31.57-11.24,4.49t-11.24,4.5a30.44,30.44,0,0,1-1.68,13.21q-2.26,5.9-2.81,7.58c-.76,1.88-1.41,3.47-2,4.78a21.92,21.92,0,0,1-2,3.65q-1.12,2.82-2,5.34c-.57,1.69-1,3.09-1.41,4.22-.76,1.88-1.32,3.28-1.69,4.21s-.94,2.16-1.68,3.66a25.66,25.66,0,0,0-4.5,8.43q-1.68,5.06-2.81,9.55c-.75,1.88-1.88,4.41-3.37,7.59s-.76,5.53,2.25,7a12.09,12.09,0,0,1,4.77-3.65,35.88,35.88,0,0,1,6.75-2.25q3.64-.84,6.74-1.4a12.55,12.55,0,0,0,4.78-1.69c.75,0,1.77-.65,3.09-2s2.34-.64,3.09,2c.37,3.75.19,5.72-.56,5.9a3.63,3.63,0,0,1-2.81-.84,13.05,13.05,0,0,0-3.65-1.69c-1.32-.36-2.16.57-2.53,2.81a10.46,10.46,0,0,1,4.78,2.25c1.3,1.13,2.71.38,4.21-2.25a4.7,4.7,0,0,0,3.93.57,9.41,9.41,0,0,0,3.66-1.69,2.81,2.81,0,0,0,1.12-2.81q-.29-1.68-3.09-2.25c-.38,1.88-1,2.63-2,2.25s-1-2.06-.28-5.06c1.5-3.37,3.56-4.86,6.18-4.49a17,17,0,0,0,8.43-1.13ZM972.2,294c.36-2.25,1.12-3.75,2.24-4.5s1.69-2.25,1.69-4.5a16.83,16.83,0,0,1-5.34.28q-2.53-.27-3.65,2.53a5,5,0,0,0,3.65.85c1.31-.19,2,.47,2,2a2.19,2.19,0,0,0-2.25,1.41C970.13,293,970.69,293.63,972.2,294Zm26.41-18q3.38,0,3.37,2.81a3.08,3.08,0,0,0-2.25,1.41q-1.12,1.41,1.69,2.53c0-2.62,2.06-3.94,6.18-3.94-.38,1.13-.28,1.88.28,2.25s1.22-.37,2-2.25q-3.37-.56-2.25-3.65a13,13,0,0,1,2.81-4.78Q1002,271.53,998.61,276Zm26.42-5.62c.36-2.62,0-4.21-1.13-4.78s-1.69,1-1.69,4.78q-6.18-.56-7.3.28c-.76.56-.66,1.13.28,1.69a9.09,9.09,0,0,0,4.5.84A6.68,6.68,0,0,0,1025,270.39Zm5.62-5.62a6.22,6.22,0,0,0-.57,2.81v2.81c1.5,0,2.44.38,2.81,1.13a3.6,3.6,0,0,0,2.25,1.68q-1.68-6.74,2-7.59a8,8,0,0,0,5.34-3.65c-3-.75-5.06-.46-6.18.84S1033.26,264.77,1030.65,264.77Z"/><path d="M1197,498.57c-.76-3-.66-5.15.28-6.46a23.38,23.38,0,0,0,2.53-4.78c0-1.49-.38-2.34-1.13-2.53s-1.6.19-2.53,1.12a10.87,10.87,0,0,0-2.25,3.37,3.62,3.62,0,0,0,.29,3.66c-1.13,0-1.6-1.31-1.41-3.94s.37-5.14.56-7.58a19.13,19.13,0,0,0-.28-5.9q-.57-2.25-4.5,1.12-3.36-1.68-2-4.22c.94-1.68,2.71-2.33,5.34-2q-5.61-5.61,2.25-5.62-2.26-2.25-1.69-3.66a7.4,7.4,0,0,1,2.25-2.81c1.12-.93,2.25-2,3.37-3.09a6.06,6.06,0,0,0,1.69-4.49,10.61,10.61,0,0,1,6.18-.56q3.91.56,7.58,1.4a30.27,30.27,0,0,0,6.75.84,6.51,6.51,0,0,0,4.78-1.68V448a3.75,3.75,0,0,1,3.09.28c1.31.56,2.15.47,2.53-.28.74-1.13,1.3-1.69,1.68-1.69a2.79,2.79,0,0,1,1.41.56,6.52,6.52,0,0,0,2.53.85,38.31,38.31,0,0,0,5.62.28c2.61,0,4.49-.47,5.62-1.41s3-1.4,5.62-1.4q-1.14,4.5,1.68,5.62c1.87.75,3,1.68,3.37,2.81q.55,1.13,2,5.06c.93,2.62,1.41,3.75,1.41,3.37-1.13,1.12-1.69,1.88-1.69,2.25s.28.65.84.84,1.22.38,2,.56,1.31.84,1.69,2a38.63,38.63,0,0,1,0,9.27,76,76,0,0,0,0,13.21q-6.2,2.25-6.19,8.43c-1.12,0-1.68-.65-1.68-2a6.44,6.44,0,0,0-1.13-3.65c-1.5,0-2.34.47-2.52,1.4a5.8,5.8,0,0,0,.28,3.09,15.38,15.38,0,0,0,1.4,3.1q.84,1.4.84.84,0,.56-4.49,7a42.79,42.79,0,0,1-9,9.84,3.75,3.75,0,0,1-3.09-.28c-1.32-.56-2.16-.48-2.53.28a28.94,28.94,0,0,1-4.5,2.53q-3.94,2-9.55.28a5.46,5.46,0,0,1-2.25-3.37c-.38-1.5-1.5-2.25-3.37-2.25-1.51,0-2.35-1-2.53-3.09s-1.22-2.91-3.09-2.53q-2.27,3.93-2,2.53c.18-.94.46-2.25.84-3.94a19.76,19.76,0,0,0,.56-3.93q0-1.41-2.24,2.53-4.52-.57-5.62-3.94T1197,498.57ZM1247.58,457V450.8H1242V457Zm5.62,10.68V462h-5.62v5.62Z"/><path d="M1443.15,313.67q-1.14,1.68,2,1.4c2.05-.18,3.09.1,3.09.84.37,1.88.18,3-.56,3.38A3.62,3.62,0,0,0,1446,321c-.76.76-.76,2,0,3.66s.75,3.09,0,4.21a10.07,10.07,0,0,1-3.09.84,3.09,3.09,0,0,0-2.53,1.41,33.38,33.38,0,0,0-2,10.12q-.28,5.63-5.9,5.05,1.68,9.57,2.81,14.9a38.65,38.65,0,0,1,0,13.2q-3.37-1.11-3.93.85c-.38,1.31-.76,2.72-1.13,4.21a5.05,5.05,0,0,1-2.53-1.68,3.64,3.64,0,0,0-3.09-1.13q0,6.75,5.62,7.87a19.48,19.48,0,0,1-6.46,10.68q-4.79,3.93-4.78,12.36c-1.5,0-2.16-.65-2-2a3.49,3.49,0,0,0-.85-3.1c-1.88.76-2.9,1.6-3.09,2.53a4.77,4.77,0,0,0,.56,3.09c.57,1.13,1.22,2.35,2,3.66a4.4,4.4,0,0,1,.56,3.65c-1.88,0-2.62.94-2.25,2.81a5.87,5.87,0,0,1-.56,4.5,9.76,9.76,0,0,1-2.81,2.81c-1.5,1.12-2.25,1.88-2.25,2.24a6.72,6.72,0,0,0,.29,4.22c.56,1.69.46,2.91-.29,3.65-.37.76-1.31.85-2.81.28s-2.44-.65-2.81-.28a9.55,9.55,0,0,0,0,6.47,11.23,11.23,0,0,1,0,7,6,6,0,0,1-4.21-.28,7.5,7.5,0,0,1-2.25-2l-1.68-2.24a3,3,0,0,0-2.53-1.13c.37.76.28,2.06-.29,3.94s-.47,3,.29,3.37c0,.37.84.47,2.53.28s2.71-.28,3.09-.28a4.2,4.2,0,0,1-1.69,4.49q-2.25,1.69,1.69,6.19a6.08,6.08,0,0,0-4.5,1.68l-3.09,3.09a8.56,8.56,0,0,1-2.81,2q-1.41.57-3.65-1.69c-.76,3,0,4.5,2.24,4.5a32.07,32.07,0,0,1,6.19.56c-1.88,1.5-2.45,3.94-1.69,7.31s.37,6.18-1.12,8.43c-.38,0-1.32-.09-2.81-.28s-2.45-.09-2.81.28c0,.75.65,1.78,2,3.09a3.39,3.39,0,0,1,.85,4.21c.36-.74,0-.36-1.13,1.13s-1.68,2.06-1.68,1.68a21,21,0,0,0-2.25,5.62q-1.14,3.93,0,12.37c-1.5,0-2.35.56-2.53,1.69a20.08,20.08,0,0,0-.28,3.37q-2.25-1.14-9.56-2.81c-4.87-1.13-7.5-.94-7.86.56-.76-1.12-1.6-2.25-2.53-3.37a16.54,16.54,0,0,1-2.53-4.5c-1.88,1.13-2.25,2.34-1.13,3.65s.75,3.46-1.12,6.47q-4.5.56-5.9-1.41t-5.9-.84a13.82,13.82,0,0,1,4.21-3.09q2-.84,4.78-2-.57-2.25-4.5-3.65a19.78,19.78,0,0,0-6.18-1.41,13.51,13.51,0,0,0-7.87,1.13q-3.37,1.68-3.37-1.13a16.49,16.49,0,0,0-5.62,7.31,8,8,0,0,0-5.06-1.41,31.69,31.69,0,0,1-3.93.28,5.88,5.88,0,0,1-3.09-.84q-1.41-.84-2-5.34a32.64,32.64,0,0,0,5.06,1.69c.37,0,.18-.38-.56-1.13a30.93,30.93,0,0,1-2.81-3.37,8.18,8.18,0,0,1-1.69-5.06c-1.88.76-2.72,1.5-2.53,2.25A9.47,9.47,0,0,0,1308,505a8.84,8.84,0,0,1,1.12,2.81c.18.93-.48,1.78-2,2.53-1.5,0-2.25-.56-2.25-1.69a16.68,16.68,0,0,0-.56-3.93c-.37-1.12-.84-1.6-1.4-1.4a1.29,1.29,0,0,0-.85,1.4,11.45,11.45,0,0,1-6.74-4.21,43.2,43.2,0,0,0-4.5-5.34c-.74-.75-.93-1.41-.56-2s-.37-.84-2.25-.84c-1.12,0-1.21-.28-.28-.85s2-1.12,3.09-1.68a4.63,4.63,0,0,0,2-1.41c.19-.37-1.21-.56-4.21-.56a17.86,17.86,0,0,0,1.12-10.68q-1.12-5.06,3.37-12.36c0-3,1.13-4.12,3.37-3.37q3.38-1.12.85-5.62c-1.69-3-2-5.43-.85-7.31a2.23,2.23,0,0,1,2.81-.28c1.13.56,2.07.1,2.81-1.41,0-1.12-1.12-1.68-3.37-1.68s-3-.37-2.25-1.13a1.59,1.59,0,0,0,1.13-.56c.38-.37.66-.56.84-.56s.48-.18.84-.56a24.31,24.31,0,0,1,2.81-1.13q.57-2.24-1.68-1.68c-1.49.37-1.87.94-1.13,1.68-1.87.38-2.61.1-2.24-.84a29.79,29.79,0,0,1,1.68-3.37,7.76,7.76,0,0,0,1.13-3.94c0-1.3-1.13-2-3.38-2,0-2.62,1-3.38,3.09-2.25s2.91,1.88,2.53,2.25c1.88-.75,2.25-2.44,1.13-5.06s-.75-6,1.12-10.12h5.06c0-1.49-.66-2.24-2-2.24a6.92,6.92,0,0,1-3.09-.57,16.18,16.18,0,0,0,.28-5.34c-.19-2.05-.28-3.93-.28-5.62a7.7,7.7,0,0,1,.84-3.93c.57-.93,2-1,4.22-.28.75-2.25.56-3.65-.56-4.22a10.2,10.2,0,0,0-4.5-.84c1.5-3.37,4.3-6,8.43-7.87a18.23,18.23,0,0,1,0-6.46,50.28,50.28,0,0,1,1.41-5.06c.56-1.69,1-3.37,1.4-5.06a18.71,18.71,0,0,0,0-6.46q3.38-.56,3.94-2.25a8,8,0,0,0,.28-3.65,11.16,11.16,0,0,1,0-3.65c.18-1.13,1.4-2.25,3.65-3.38-1.88-1.87-2.53-3.37-2-4.49a35.42,35.42,0,0,0,2-5.62,9.35,9.35,0,0,0-.56-2.81,2.53,2.53,0,0,1,.56-2.81h2.25a32.37,32.37,0,0,0,2.25-12.09q0-6.45,1.12-7.58,0-.56,2.25.84a7.37,7.37,0,0,0,3.37,1.4,9.48,9.48,0,0,1,.56-2.24c.37-1.13,1.13-1.13,2.25,0,0-1.87-.66-2.81-2-2.81a11.35,11.35,0,0,1-3.65-.57q-1.12-2.81-.28-4.49c.56-1.13,1.12-2.15,1.69-3.09a19.87,19.87,0,0,0,1.4-2.81,7.94,7.94,0,0,0,0-4.22c2.62,1.88,4.12,2.25,4.5,1.13s2.24-1.5,5.62-1.13c0-1.87-.76-2.81-2.25-2.81a25.61,25.61,0,0,1-5.06-.56c1.49-1.12,2.53-3.46,3.09-7s1.13-6.92,1.69-10.11a22.38,22.38,0,0,1,2.53-7.59c1.12-1.87,3.18-2.05,6.18-.56-1.88-2.62-3.09-4.3-3.65-5.06a2.15,2.15,0,0,1-.57-2,12.91,12.91,0,0,1,1.13-2.24,15.94,15.94,0,0,0,1.4-5.34,9.82,9.82,0,0,1,3.94.56c.74.38,1.49.75,2.25,1.12l1.68-4.49q-3.93-2.25-5.06-4.5a3.55,3.55,0,0,0,1.41-3.65,6.15,6.15,0,0,1,.84-4.22c.37-.74,1.41-1.21,3.09-1.4s2.72-.65,3.09-1.41q0-1.11-1.68-3.09a4.5,4.5,0,0,1-1.13-4.21c0-.37.75-1.22,2.25-2.53s2.43-2.15,2.81-2.53v-2.81l-2.25-3.37c-.75-1.13-.75-2.62,0-4.5h1.13a63.28,63.28,0,0,1-.56-7.87,16.3,16.3,0,0,1,1.12-6.18q2.8-7.86,5.34-14.89a75.15,75.15,0,0,0,3.65-15.46,15.47,15.47,0,0,0,8.43-8.43,111,111,0,0,0,3.94-11.8,14.44,14.44,0,0,0-10.12-6.46,44.69,44.69,0,0,0-13.21.28c-4.69.75-9.55,1.4-14.61,2a28.31,28.31,0,0,1-14.33-2,22.11,22.11,0,0,1-3.37-2.81c-1.13-1.13-2.07-2.06-2.81-2.81a49,49,0,0,1-8.15-7.59q-4.21-4.77-13.21-4.78-.55-2.81-1.69-7.3c-.74-3-2.43-4.5-5-4.5-1.87,0-3-.47-3.38-1.4a9.41,9.41,0,0,1-.56-3.38,27.44,27.44,0,0,0-.28-3.93,4.27,4.27,0,0,0-2-3.09h-2.24c-.75-.75-.85-1.87-.29-3.37s.66-2.44.29-2.82a50.13,50.13,0,0,1-5.06-3.37q-.55-.56-1.13-8.43c0-.37.1-1.4.28-3.09s.1-2.71-.28-3.09c-.74-.37-2.43-1.31-5.05-2.81s-3.38-4.5-2.25-9a24.06,24.06,0,0,0,10.39,0c2.81-.75,5.44-1.49,7.87-2.25s4.88-1.59,7.31-2.53a24.44,24.44,0,0,1,8.71-1.4,19.22,19.22,0,0,0-2,3.93,14.4,14.4,0,0,0-.84,5.06c1.87-.37,2.81-1.31,2.81-2.81s1.12-2.25,3.37-2.25q2.81.57,2.25-2.81c-.38-2.25-.19-3.56.56-3.93a3.3,3.3,0,0,1,2.81,1.68,17.69,17.69,0,0,0,2.25,2.81c.75.76,1.21.76,1.41,0a50.68,50.68,0,0,0,.28-7.3q3.36,1.68,9,.28t11.8-3.37a73.26,73.26,0,0,1,12.65-2.82,20.44,20.44,0,0,1,12.64,2.53c-2.25-1.87-3.84-3.17-4.78-3.93s-1.22-1.31-.84-1.69,2.25-.18,5.62.57a65.22,65.22,0,0,1,6.46,1.68c3.94,1.13,6.84.56,8.72-1.68a11.47,11.47,0,0,1,4.49-3.38,41.08,41.08,0,0,1,7.59-2.81,21.69,21.69,0,0,1,8.43-.56,11.87,11.87,0,0,1,7,3.37c1.88-1.12,3-2.24,3.38-3.37s1.49-2.05,3.37-2.81c-.76.38-.56,1.13.56,2.25s2.06,1.32,2.81.56a50,50,0,0,1,5.34-3.37,18.27,18.27,0,0,1,9.27-2.81q5.06.57,7.59,1.12T1446,36c1.49,0,2.15-1,2-3.09a15.71,15.71,0,0,1,.28-5.34q11.24-.55,20.51-1.4t22.76-1.41A71.63,71.63,0,0,0,1505,22.54a32.57,32.57,0,0,1,11.8-1.12,34.51,34.51,0,0,1,7,.56c1.68.38,2.33,2.25,2,5.62,1.87-.74,2.81-2,2.81-3.65s-.94-2.53-2.81-2.53a12.11,12.11,0,0,1,10.11-3.93q5.61.56,11.8.56c.37,0,1.41-.09,3.09-.28a50.62,50.62,0,0,1,5.62-.28h5.91a9.76,9.76,0,0,1,3.93.56q1.68,2.82,2.81,2t9.55-2q2.81,0,5.91.28a20.59,20.59,0,0,0,5.9-.28v11.8c1.49.75,2.53.47,3.09-.84a11.36,11.36,0,0,0,.84-4.5,13.58,13.58,0,0,0-.84-4.78,2.37,2.37,0,0,0-3.09-1.68c.37-2.25,1.59-3.46,3.65-3.66a19.34,19.34,0,0,1,6.46.57q3.38.84,6.75,1.4c2.24.38,3.74,0,4.49-1.12,1.87-1.87,2.72-2.25,2.53-1.13s.09,1.51.85,1.13a3.31,3.31,0,0,0,2.81-1.69,6.93,6.93,0,0,0,1.12-1.68,71.33,71.33,0,0,1,9.55,3.09q6.75,2.52,17.43.28a28.37,28.37,0,0,0,11.52,10.11A21.4,21.4,0,0,1,1668,36a9.78,9.78,0,0,1,5.34.28c1.31.57,2.53,1.13,3.66,1.69a40.64,40.64,0,0,0,3.93,1.68,8.33,8.33,0,0,0,5.62-.28,57.4,57.4,0,0,1,4.78,7.31,8.17,8.17,0,0,0,7.59,4.5,11.06,11.06,0,0,1,6.46,3.09,52.43,52.43,0,0,1,5.34,6.46c.74.76,1,1.32.84,1.69s.65.56,2.53.56q6.18,1.12,6.18,9-.57,4.5,3.09,4.22a6.47,6.47,0,0,1,5.9,2.53A5.43,5.43,0,0,1,1732,83a4.29,4.29,0,0,0,3.94,3.65,44.91,44.91,0,0,1-2.25,15.18q-2.25,6.19-4.5,11.8-30.92-2.81-63.22-5.34a457.15,457.15,0,0,0-66-.28c-3,0-4.87.38-5.62,1.12a7.6,7.6,0,0,1-3.93,1.69,64.24,64.24,0,0,1-12.09,0,65.86,65.86,0,0,0-12.08,0,186.46,186.46,0,0,0-33.44,5.34,111.71,111.71,0,0,1-31.75,3.65q.56,11.25.56,22.48a62.34,62.34,0,0,1-2.81,19.67,2.52,2.52,0,0,0-.56,2.81,9.52,9.52,0,0,1,.56,2.25h-3.94a40.54,40.54,0,0,0-1.12,9.84c0,3.56-.75,6.27-2.25,8.15-.38,1.12-1.31,1.68-2.81,1.68a4.57,4.57,0,0,0-3.37,1.13c-.38.75-.28,1.87.28,3.37s.47,2.62-.28,3.37a21,21,0,0,0-3.37,4.78q-1.7,3.09-3.37,6.46,1.11,1.13,4.49.56a17.56,17.56,0,0,0-4.49,6.75,22.61,22.61,0,0,0-1.13,7.3c0,2.63.09,5.06.28,7.31a16.66,16.66,0,0,1-.84,6.74c0,.76-.75,1.22-2.25,1.41s-2.25.66-2.25,1.4a14.12,14.12,0,0,0-.84,8.15,7.86,7.86,0,0,1-2,7l-2.81,2.81a13.83,13.83,0,0,0-1.4,7.3,16.74,16.74,0,0,1-1.41,7.87l-1.68,2.25a9.12,9.12,0,0,0,.28,2.25,3.24,3.24,0,0,1-.28,2.25,1.81,1.81,0,0,1-1.69,1.12,5.05,5.05,0,0,0-2.25.56l1.13-4.49a1.67,1.67,0,0,1-1.13.56.5.5,0,0,0-.56.56,2.53,2.53,0,0,0-.28,2,6.14,6.14,0,0,1,.28,2,.5.5,0,0,0-.56.57,8.64,8.64,0,0,0,0,6.18,8.75,8.75,0,0,1,0,6.18,9.24,9.24,0,0,1-3.09,2.81c-1.69,1.12-2.53,2.06-2.53,2.81a19.15,19.15,0,0,0-.28,8.71,31.21,31.21,0,0,1,.28,9.27A11.65,11.65,0,0,0,1443.15,313.67ZM1283,469.34c.37-1.49.84-2,1.4-1.68a3.54,3.54,0,0,1,1.12,2.53,28,28,0,0,1,.29,4.21v2.81q-1.12,3.94-2.81,2C1281.85,477.87,1281.85,474.6,1283,469.34Zm7.86-400.71a6,6,0,0,0,5.06,0,17,17,0,0,0,4.78-2.81,6,6,0,0,0,2.25-3.37c.19-1.13-.47-1.69-2-1.69,0,1.88-.65,2.81-2,2.81a40.36,40.36,0,0,1-4.49-.28,6.37,6.37,0,0,0-3.94.56C1289.63,64.41,1289.72,66,1290.84,68.63ZM1342,495.2a32.49,32.49,0,0,1-1.41-8.43c-.19-3.38-1.22-5.81-3.09-7.31a6.18,6.18,0,0,1,.28,4.78,14.31,14.31,0,0,1-2,3.37,6.57,6.57,0,0,0-1.4,2.81c-.19.94.84,1.6,3.09,2,0-1.87.93-2.62,2.81-2.25a14,14,0,0,0,0,5.62C1340.67,497.64,1341.23,497.44,1342,495.2Zm11.8,27.54a3.13,3.13,0,0,1-2.81,3.37,10.33,10.33,0,0,1-5.34-.28c-1.69-.57-2.63-1.22-2.81-2s1.59-1.12,5.34-1.12Zm1.69-268.65c.74,1.13,1.87.94,3.37-.56Zm19.67,249.26a22.24,22.24,0,0,0-7-2,40.16,40.16,0,0,0-8.15-.28c-2.62.19-3.93.84-3.93,2a86.92,86.92,0,0,1,10.11,1.41q3.93.84,9.56,2.53C1377.2,505.5,1377,504.28,1375.15,503.35Zm-17.43-261.06h1.13a1.14,1.14,0,0,1,.28-.84,2.28,2.28,0,0,0,.28-1.41Zm19.67-194.46a5.06,5.06,0,0,0,4.78,1.13,24,24,0,0,0,5.62-1.69c1.69-.74,2.62-1.59,2.81-2.53s-1-1.59-3.65-2V45c-.76.38-2.81.76-6.18,1.13S1376.27,47.09,1377.39,47.83Zm80.37,231.55.56-.56a1.63,1.63,0,0,1-.56,1.13Zm92.73-258q-9.56,0-12.36,6.18,4.48,3.95,7.31.84A39.47,39.47,0,0,0,1550.49,21.42Zm2.81,0c-.75,0-1.68,1.22-2.81,3.65a18.23,18.23,0,0,1-2.81,4.78A6.93,6.93,0,0,0,1553,29a4.93,4.93,0,0,0,2.25-3.09,5.72,5.72,0,0,0-.28-3.1C1554.61,21.89,1554.05,21.42,1553.3,21.42Zm70.82,3.37c.74-3,.56-5.14-.56-6.46a11.43,11.43,0,0,0-4.5-3.09c-.76,2.62-.56,4.59.56,5.9A17.88,17.88,0,0,0,1624.12,24.79Z"/><path d="M1493.16,498.57q-1.12-4.5.28-6.46a22.44,22.44,0,0,0,2.53-4.78c0-1.49-.37-2.34-1.12-2.53s-1.6.19-2.53,1.12a10.7,10.7,0,0,0-2.25,3.37,3.65,3.65,0,0,0,.28,3.66c-1.12,0-1.6-1.31-1.4-3.94s.37-5.14.56-7.58a19.45,19.45,0,0,0-.28-5.9q-.57-2.25-4.5,1.12-3.37-1.68-2-4.22c.94-1.68,2.71-2.33,5.34-2q-5.62-5.61,2.24-5.62-2.25-2.25-1.68-3.66a7.4,7.4,0,0,1,2.25-2.81q1.68-1.39,3.37-3.09a6.06,6.06,0,0,0,1.68-4.49,10.65,10.65,0,0,1,6.19-.56q3.91.56,7.58,1.4a30.2,30.2,0,0,0,6.75.84,6.47,6.47,0,0,0,4.77-1.68V448a3.75,3.75,0,0,1,3.09.28c1.31.56,2.16.47,2.53-.28.75-1.13,1.31-1.69,1.69-1.69a2.76,2.76,0,0,1,1.4.56,6.64,6.64,0,0,0,2.53.85,38.49,38.49,0,0,0,5.62.28c2.62,0,4.5-.47,5.62-1.41s3-1.4,5.62-1.4q-1.12,4.5,1.69,5.62c1.87.75,3,1.68,3.37,2.81q.55,1.13,2,5.06c.93,2.62,1.4,3.75,1.4,3.37-1.12,1.12-1.68,1.88-1.68,2.25s.28.65.84.84,1.21.38,2,.56,1.31.84,1.68,2a38.63,38.63,0,0,1,0,9.27,78,78,0,0,0,0,13.21q-6.18,2.25-6.18,8.43c-1.12,0-1.68-.65-1.68-2a6.44,6.44,0,0,0-1.13-3.65c-1.5,0-2.34.47-2.53,1.4a6,6,0,0,0,.28,3.09,15.41,15.41,0,0,0,1.41,3.1q.84,1.4.84.84,0,.56-4.49,7a42.81,42.81,0,0,1-9,9.84A3.75,3.75,0,0,1,1535,518c-1.31-.56-2.16-.48-2.53.28a28.06,28.06,0,0,1-4.49,2.53q-3.94,2-9.56.28a5.45,5.45,0,0,1-2.24-3.37c-.38-1.5-1.51-2.25-3.38-2.25-1.5,0-2.34-1-2.53-3.09s-1.22-2.91-3.09-2.53c-1.5,2.62-2.16,3.46-2,2.53s.46-2.25.84-3.94a19.76,19.76,0,0,0,.56-3.93q0-1.41-2.25,2.53-4.5-.57-5.62-3.94T1493.16,498.57ZM1543.74,457V450.8h-5.62V457Zm5.62,10.68V462h-5.62v5.62Z"/></svg>