<?xml version="1.0" encoding="utf-8"?>
<!-- Generator: Adobe Illustrator 24.1.1, SVG Export Plug-In . SVG Version: 6.00 Build 0)  -->
<svg version="1.1" id="Layer_1" xmlns="http://www.w3.org/2000/svg" xmlns:xlink="http://www.w3.org/1999/xlink" x="0px" y="0px"
	 viewBox="0 0 48 48" style="enable-background:new 0 0 48 48;" xml:space="preserve">
<style type="text/css">
	.st0{fill:#4D4D4D;}
	.st1{fill:#F15A24;}
	.st2{fill:none;}
</style>
<circle class="st0" cx="24" cy="24" r="17.8"/>
<path class="st1" d="M35.1,34.4c0,2.4,1.4,4.3-0.5,5.9c-2,1.6-7.5,3-10.6,3c-3.7,0-8.6-0.8-10.6-3c-1.3-1.5-0.5-3.9-0.5-5.9
	c0-4.9,5-8.9,11.1-8.9S35.1,29.4,35.1,34.4z"/>
<g>
	<rect x="4" y="4" class="st2" width="40" height="40"/>
	<rect x="4" y="4" class="st2" width="40" height="40"/>
</g>
<circle class="st1" cx="24.2" cy="19.1" r="6.3"/>
<g id="Layer_7">
	<path d="M28.4,24.5c3.1-2.5,3.6-6.9,1.1-10c-2.5-3.1-6.9-3.6-10-1.1s-3.6,6.9-1.1,10c0.3,0.4,0.7,0.8,1.1,1.1
		c-5.1,1.9-8.6,6.8-8.6,12.2v2.4l13,4.1l13-4.1v-2.4C37,31.3,33.6,26.4,28.4,24.5z M19.3,19c0-2.6,2.1-4.7,4.7-4.7s4.7,2.1,4.7,4.7
		s-2.1,4.7-4.7,4.7S19.3,21.6,19.3,19z M13.4,36.7c0.7-5.9,5.9-11.3,11.8-10.6c5,0.6,8.9,5.6,9.4,10.6v1.8l-2.3,2.3l-8.2,1.6
		l-10.6-1.8l-0.2-2V36.7z"/>
</g>
<path d="M24,4C13,4,4,13,4,24S13,44,24,44S44,35,44,24S35,4,24,4z M24,41.8c-9.9,0-17.8-8-17.8-17.8S14.1,6.2,24,6.2
	s17.8,8,17.8,17.8S33.9,41.8,24,41.8z"/>
</svg>
