<?xml version="1.0" encoding="utf-8"?>
<!-- Generator: Adobe Illustrator 24.1.1, SVG Export Plug-In . SVG Version: 6.00 Build 0)  -->
<svg version="1.1" id="Layer_1" xmlns="http://www.w3.org/2000/svg" xmlns:xlink="http://www.w3.org/1999/xlink" x="0px" y="0px"
	 viewBox="0 0 48 48" style="enable-background:new 0 0 48 48;" xml:space="preserve">
<style type="text/css">
	.st0{fill:none;}
</style>
<g>
	<rect x="4" y="4" class="st0" width="40" height="40"/>
	<rect x="4" y="4" class="st0" width="40" height="40"/>
</g>
<g id="Layer_7">
	<path d="M28.4,24.5c3.1-2.5,3.6-6.9,1.1-10s-6.9-3.6-10-1.1s-3.6,6.9-1.1,10c0.3,0.4,0.7,0.8,1.1,1.1c-5.1,1.9-8.6,6.8-8.6,12.2
		v2.4l13,4.1l13-4.1v-2.4C37,31.3,33.6,26.4,28.4,24.5z M19.3,19c0-2.6,2.1-4.7,4.7-4.7s4.7,2.1,4.7,4.7s-2.1,4.7-4.7,4.7
		S19.3,21.6,19.3,19z M13.4,36.7c0.7-5.9,5.9-11.3,11.8-10.6c5,0.6,8.9,5.6,9.4,10.6v1.8l-2.3,2.3l-8.2,1.6l-10.6-1.8l-0.2-2v-1.9
		H13.4z"/>
</g>
<path d="M24,4C13,4,4,13,4,24s9,20,20,20s20-9,20-20S35,4,24,4z M24,41.8c-9.9,0-17.8-8-17.8-17.8S14.1,6.2,24,6.2s17.8,8,17.8,17.8
	S33.9,41.8,24,41.8z"/>
</svg>
